<svg width="50" height="20" viewBox="0 0 50 20" fill="none" xmlns="http://www.w3.org/2000/svg">
<path d="M0.580256 19V0.818181H4.42436V15.8306H12.2191V19H0.580256ZM26.1129 6.69531C25.9886 6.26326 25.814 5.88151 25.5891 5.55007C25.3642 5.21271 25.089 4.92862 24.7635 4.6978C24.4439 4.46106 24.0769 4.28054 23.6626 4.15625C23.2543 4.03196 22.8015 3.96982 22.3043 3.96982C21.3751 3.96982 20.5584 4.20064 19.854 4.66229C19.1557 5.12393 18.6112 5.79569 18.2205 6.67756C17.8299 7.5535 17.6346 8.62476 17.6346 9.89134C17.6346 11.1579 17.8269 12.2351 18.2116 13.1229C18.5964 14.0107 19.1409 14.6883 19.8452 15.1559C20.5495 15.6175 21.381 15.8484 22.3398 15.8484C23.2099 15.8484 23.9527 15.6945 24.5682 15.3867C25.1896 15.073 25.6631 14.6321 25.9886 14.0639C26.3201 13.4957 26.4858 12.824 26.4858 12.0487L27.267 12.1641H22.5795V9.26989H30.1879V11.5604C30.1879 13.1584 29.8505 14.5315 29.1758 15.6797C28.5011 16.822 27.5719 17.7038 26.3881 18.3253C25.2044 18.9408 23.8491 19.2486 22.3221 19.2486C20.6175 19.2486 19.1201 18.8728 17.8299 18.1211C16.5397 17.3635 15.5335 16.2893 14.8114 14.8984C14.0953 13.5017 13.7372 11.8445 13.7372 9.92685C13.7372 8.45312 13.9503 7.1392 14.3764 5.98508C14.8085 4.82505 15.4122 3.84257 16.1875 3.03764C16.9628 2.23272 17.8654 1.62015 18.8952 1.19993C19.9251 0.77971 21.0407 0.569602 22.2422 0.569602C23.272 0.569602 24.2308 0.720525 25.1186 1.02237C26.0064 1.3183 26.7936 1.73852 27.4801 2.28303C28.1726 2.82753 28.7378 3.47561 29.1758 4.22727C29.6138 4.97301 29.8949 5.79569 30.0192 6.69531H26.1129ZM45.1315 6.69531C45.0072 6.26326 44.8326 5.88151 44.6077 5.55007C44.3828 5.21271 44.1076 4.92862 43.782 4.6978C43.4624 4.46106 43.0955 4.28054 42.6812 4.15625C42.2728 4.03196 41.82 3.96982 41.3229 3.96982C40.3937 3.96982 39.5769 4.20064 38.8726 4.66229C38.1742 5.12393 37.6297 5.79569 37.2391 6.67756C36.8485 7.5535 36.6531 8.62476 36.6531 9.89134C36.6531 11.1579 36.8455 12.2351 37.2302 13.1229C37.6149 14.0107 38.1594 14.6883 38.8637 15.1559C39.568 15.6175 40.3996 15.8484 41.3584 15.8484C42.2284 15.8484 42.9712 15.6945 43.5867 15.3867C44.2082 15.073 44.6817 14.6321 45.0072 14.0639C45.3386 13.4957 45.5044 12.824 45.5044 12.0487L46.2856 12.1641H41.5981V9.26989H49.2064V11.5604C49.2064 13.1584 48.8691 14.5315 48.1943 15.6797C47.5196 16.822 46.5904 17.7038 45.4067 18.3253C44.223 18.9408 42.8676 19.2486 41.3406 19.2486C39.6361 19.2486 38.1387 18.8728 36.8485 18.1211C35.5582 17.3635 34.5521 16.2893 33.83 14.8984C33.1138 13.5017 32.7558 11.8445 32.7558 9.92685C32.7558 8.45312 32.9688 7.1392 33.395 5.98508C33.827 4.82505 34.4307 3.84257 35.2061 3.03764C35.9814 2.23272 36.884 1.62015 37.9138 1.19993C38.9436 0.77971 40.0593 0.569602 41.2607 0.569602C42.2906 0.569602 43.2494 0.720525 44.1372 1.02237C45.0249 1.3183 45.8121 1.73852 46.4987 2.28303C47.1911 2.82753 47.7564 3.47561 48.1943 4.22727C48.6323 4.97301 48.9134 5.79569 49.0377 6.69531H45.1315Z" fill="#686868"/>
</svg>
