<svg width="123" height="49" viewBox="0 0 123 49" fill="none" xmlns="http://www.w3.org/2000/svg">
<g filter="url(#filter0_d_255_130)">
<g clip-path="url(#clip0_255_130)">
<g filter="url(#filter1_d_255_130)">
<g clip-path="url(#clip1_255_130)">
<rect x="7.5" y="6.80859" width="34.3818" height="34.3818" rx="4.43636" fill="#525252"/>
<g filter="url(#filter2_df_255_130)">
<path d="M20.3797 33.1851C14.1688 23.8687 11.1373 26.7154 10.3979 29.3032L12.0617 35.4032L6.51611 32.0759C5.96157 34.1093 6.95975 39.8396 15.3888 46.4941C25.9252 54.8123 23.1525 54.2578 39.2343 46.4941C52.0997 40.2832 41.6373 38.3608 34.7979 38.1759C32.5797 40.3941 26.5907 42.5014 20.3797 33.1851Z" fill="#686868"/>
<path d="M20.3797 33.1851C14.1688 23.8687 11.1373 26.7154 10.3979 29.3032L12.0617 35.4032L6.51611 32.0759C5.96157 34.1093 6.95975 39.8396 15.3888 46.4941C25.9252 54.8123 23.1525 54.2578 39.2343 46.4941C52.0997 40.2832 41.6373 38.3608 34.7979 38.1759C32.5797 40.3941 26.5907 42.5014 20.3797 33.1851Z" stroke="#686868" stroke-width="1.10909"/>
</g>
<g filter="url(#filter3_df_255_130)">
<circle cx="17.4815" cy="25.6632" r="11.0909" fill="url(#paint0_linear_255_130)"/>
</g>
<g filter="url(#filter4_df_255_130)">
<circle cx="5.38701" cy="5.38701" r="5.38701" transform="matrix(-1 0 0 1 45.7744 27.0898)" fill="url(#paint1_linear_255_130)"/>
</g>
<g filter="url(#filter5_df_255_130)">
<path d="M34.6662 4.34912C40.8771 -4.96725 43.9086 -2.12058 44.648 0.467299L42.9842 6.56728L48.5298 3.24001C49.0843 5.27334 48.0862 11.0036 39.6571 17.6582C29.1207 25.9764 31.8934 25.4218 15.8116 17.6582C2.94615 11.4473 13.4086 9.52486 20.248 9.34001C22.4662 11.5582 28.4552 13.6655 34.6662 4.34912Z" fill="#686868"/>
<path d="M34.6662 4.34912C40.8771 -4.96725 43.9086 -2.12058 44.648 0.467299L42.9842 6.56728L48.5298 3.24001C49.0843 5.27334 48.0862 11.0036 39.6571 17.6582C29.1207 25.9764 31.8934 25.4218 15.8116 17.6582C2.94615 11.4473 13.4086 9.52486 20.248 9.34001C22.4662 11.5582 28.4552 13.6655 34.6662 4.34912Z" stroke="#686868" stroke-width="1.10909"/>
</g>
<g filter="url(#filter6_df_255_130)">
<path d="M32.0398 22.123C29.0231 17.5979 27.5507 18.9806 27.1915 20.2375L27.9996 23.2004L25.3061 21.5843C25.0367 22.5719 25.5215 25.3552 29.6157 28.5874C34.7333 32.6276 33.3866 32.3583 41.1978 28.5874C47.4467 25.5707 42.3649 24.6369 39.0429 24.5471C37.9655 25.6245 35.0566 26.6481 32.0398 22.123Z" fill="#686868"/>
<path d="M32.0398 22.123C29.0231 17.5979 27.5507 18.9806 27.1915 20.2375L27.9996 23.2004L25.3061 21.5843C25.0367 22.5719 25.5215 25.3552 29.6157 28.5874C34.7333 32.6276 33.3866 32.3583 41.1978 28.5874C47.4467 25.5707 42.3649 24.6369 39.0429 24.5471C37.9655 25.6245 35.0566 26.6481 32.0398 22.123Z" stroke="#686868" stroke-width="0.538701"/>
</g>
</g>
</g>
</g>
</g>
<path d="M51.8741 31V17H60.5941V19.18H54.2941V22.88H60.0941V25.08H54.2941V31H51.8741ZM62.5773 31V17H64.9973V31H62.5773ZM67.753 31V17H70.173V31H67.753ZM72.9288 31V17H77.5288L80.8288 29.38H81.1488V17H83.5288V31H78.9488L75.6488 18.62H75.3088V31H72.9288ZM91.4659 35V21.12H93.7259V22.42H94.0659C94.2925 22.0067 94.6525 21.64 95.1459 21.32C95.6525 21 96.3725 20.84 97.3059 20.84C98.1059 20.84 98.8459 21.04 99.5259 21.44C100.219 21.8267 100.773 22.4 101.186 23.16C101.599 23.92 101.806 24.8333 101.806 25.9V26.22C101.806 27.2867 101.599 28.2 101.186 28.96C100.773 29.72 100.226 30.3 99.5459 30.7C98.8659 31.0867 98.1192 31.28 97.3059 31.28C96.6792 31.28 96.1525 31.2067 95.7259 31.06C95.3125 30.9133 94.9725 30.72 94.7059 30.48C94.4525 30.24 94.2525 30 94.1059 29.76H93.7659V35H91.4659ZM96.6259 29.28C97.4659 29.28 98.1525 29.0133 98.6859 28.48C99.2325 27.9333 99.5059 27.16 99.5059 26.16V25.96C99.5059 24.9467 99.2325 24.1733 98.6859 23.64C98.1392 23.1067 97.4525 22.84 96.6259 22.84C95.7992 22.84 95.1059 23.1067 94.5459 23.64C93.9992 24.1733 93.7259 24.9467 93.7259 25.96V26.16C93.7259 27.16 93.9992 27.9333 94.5459 28.48C95.1059 29.0133 95.7992 29.28 96.6259 29.28ZM104.239 31V21.12H106.499V22.26H106.839C106.986 21.8467 107.233 21.5467 107.579 21.36C107.926 21.1733 108.339 21.08 108.819 21.08H110.019V23.12H108.779C108.113 23.12 107.573 23.3 107.159 23.66C106.746 24.0067 106.539 24.5467 106.539 25.28V31H104.239ZM116.38 31.28C115.394 31.28 114.507 31.08 113.72 30.68C112.947 30.2667 112.334 29.6867 111.88 28.94C111.44 28.18 111.22 27.2733 111.22 26.22V25.9C111.22 24.8467 111.44 23.94 111.88 23.18C112.334 22.42 112.947 21.84 113.72 21.44C114.507 21.04 115.394 20.84 116.38 20.84C117.367 20.84 118.247 21.04 119.02 21.44C119.794 21.84 120.4 22.42 120.84 23.18C121.294 23.94 121.52 24.8467 121.52 25.9V26.22C121.52 27.2733 121.294 28.18 120.84 28.94C120.4 29.6867 119.794 30.2667 119.02 30.68C118.247 31.08 117.367 31.28 116.38 31.28ZM116.38 29.24C117.22 29.24 117.907 28.9733 118.44 28.44C118.974 27.8933 119.24 27.1333 119.24 26.16V25.96C119.24 24.9867 118.974 24.2333 118.44 23.7C117.907 23.1533 117.22 22.88 116.38 22.88C115.54 22.88 114.854 23.1533 114.32 23.7C113.787 24.2333 113.52 24.9867 113.52 25.96V26.16C113.52 27.1333 113.787 27.8933 114.32 28.44C114.854 28.9733 115.54 29.24 116.38 29.24Z" fill="#525252"/>
<defs>
<filter id="filter0_d_255_130" x="0.545455" y="0.609091" width="47.9091" height="47.9091" filterUnits="userSpaceOnUse" color-interpolation-filters="sRGB">
<feFlood flood-opacity="0" result="BackgroundImageFix"/>
<feColorMatrix in="SourceAlpha" type="matrix" values="0 0 0 0 0 0 0 0 0 0 0 0 0 0 0 0 0 0 127 0" result="hardAlpha"/>
<feOffset dy="0.563636"/>
<feGaussianBlur stdDeviation="4.22727"/>
<feComposite in2="hardAlpha" operator="out"/>
<feColorMatrix type="matrix" values="0 0 0 0 0.55 0 0 0 0 0.55 0 0 0 0 0.55 0 0 0 0.54 0"/>
<feBlend mode="normal" in2="BackgroundImageFix" result="effect1_dropShadow_255_130"/>
<feBlend mode="normal" in="SourceGraphic" in2="effect1_dropShadow_255_130" result="shape"/>
</filter>
<filter id="filter1_d_255_130" x="-9.13636" y="-8.71868" width="67.6546" height="67.6546" filterUnits="userSpaceOnUse" color-interpolation-filters="sRGB">
<feFlood flood-opacity="0" result="BackgroundImageFix"/>
<feColorMatrix in="SourceAlpha" type="matrix" values="0 0 0 0 0 0 0 0 0 0 0 0 0 0 0 0 0 0 127 0" result="hardAlpha"/>
<feOffset dy="1.10909"/>
<feGaussianBlur stdDeviation="8.31818"/>
<feComposite in2="hardAlpha" operator="out"/>
<feColorMatrix type="matrix" values="0 0 0 0 0.8 0 0 0 0 0.8 0 0 0 0 0.8 0 0 0 0.25 0"/>
<feBlend mode="normal" in2="BackgroundImageFix" result="effect1_dropShadow_255_130"/>
<feBlend mode="normal" in="SourceGraphic" in2="effect1_dropShadow_255_130" result="shape"/>
</filter>
<filter id="filter2_df_255_130" x="0.179574" y="20.5606" width="51.3586" height="41.3933" filterUnits="userSpaceOnUse" color-interpolation-filters="sRGB">
<feFlood flood-opacity="0" result="BackgroundImageFix"/>
<feColorMatrix in="SourceAlpha" type="matrix" values="0 0 0 0 0 0 0 0 0 0 0 0 0 0 0 0 0 0 127 0" result="hardAlpha"/>
<feOffset dy="4.43636"/>
<feGaussianBlur stdDeviation="2.21818"/>
<feComposite in2="hardAlpha" operator="out"/>
<feColorMatrix type="matrix" values="0 0 0 0 0 0 0 0 0 0 0 0 0 0 0 0 0 0 0.25 0"/>
<feBlend mode="normal" in2="BackgroundImageFix" result="effect1_dropShadow_255_130"/>
<feBlend mode="normal" in="SourceGraphic" in2="effect1_dropShadow_255_130" result="shape"/>
<feGaussianBlur stdDeviation="2.82818" result="effect2_foregroundBlur_255_130"/>
</filter>
<filter id="filter3_df_255_130" x="0.734262" y="8.9159" width="33.4944" height="36.7109" filterUnits="userSpaceOnUse" color-interpolation-filters="sRGB">
<feFlood flood-opacity="0" result="BackgroundImageFix"/>
<feColorMatrix in="SourceAlpha" type="matrix" values="0 0 0 0 0 0 0 0 0 0 0 0 0 0 0 0 0 0 127 0" result="hardAlpha"/>
<feOffset dy="4.43636"/>
<feGaussianBlur stdDeviation="2.21818"/>
<feComposite in2="hardAlpha" operator="out"/>
<feColorMatrix type="matrix" values="0 0 0 0 0 0 0 0 0 0 0 0 0 0 0 0 0 0 0.25 0"/>
<feBlend mode="normal" in2="BackgroundImageFix" result="effect1_dropShadow_255_130"/>
<feBlend mode="normal" in="SourceGraphic" in2="effect1_dropShadow_255_130" result="shape"/>
<feGaussianBlur stdDeviation="2.82818" result="effect2_foregroundBlur_255_130"/>
</filter>
<filter id="filter4_df_255_130" x="29.3441" y="21.4335" width="22.0867" height="25.3031" filterUnits="userSpaceOnUse" color-interpolation-filters="sRGB">
<feFlood flood-opacity="0" result="BackgroundImageFix"/>
<feColorMatrix in="SourceAlpha" type="matrix" values="0 0 0 0 0 0 0 0 0 0 0 0 0 0 0 0 0 0 127 0" result="hardAlpha"/>
<feOffset dy="4.43636"/>
<feGaussianBlur stdDeviation="2.21818"/>
<feComposite in2="hardAlpha" operator="out"/>
<feColorMatrix type="matrix" values="0 0 0 0 0 0 0 0 0 0 0 0 0 0 0 0 0 0 0.25 0"/>
<feBlend mode="normal" in2="BackgroundImageFix" result="effect1_dropShadow_255_130"/>
<feBlend mode="normal" in="SourceGraphic" in2="effect1_dropShadow_255_130" result="shape"/>
<feGaussianBlur stdDeviation="2.82818" result="effect2_foregroundBlur_255_130"/>
</filter>
<filter id="filter5_df_255_130" x="3.5077" y="-8.27538" width="51.3586" height="41.3933" filterUnits="userSpaceOnUse" color-interpolation-filters="sRGB">
<feFlood flood-opacity="0" result="BackgroundImageFix"/>
<feColorMatrix in="SourceAlpha" type="matrix" values="0 0 0 0 0 0 0 0 0 0 0 0 0 0 0 0 0 0 127 0" result="hardAlpha"/>
<feOffset dy="4.43636"/>
<feGaussianBlur stdDeviation="2.21818"/>
<feComposite in2="hardAlpha" operator="out"/>
<feColorMatrix type="matrix" values="0 0 0 0 0 0 0 0 0 0 0 0 0 0 0 0 0 0 0.25 0"/>
<feBlend mode="normal" in2="BackgroundImageFix" result="effect1_dropShadow_255_130"/>
<feBlend mode="normal" in="SourceGraphic" in2="effect1_dropShadow_255_130" result="shape"/>
<feGaussianBlur stdDeviation="2.82818" result="effect2_foregroundBlur_255_130"/>
</filter>
<filter id="filter6_df_255_130" x="19.3192" y="13.082" width="30.7639" height="27.5774" filterUnits="userSpaceOnUse" color-interpolation-filters="sRGB">
<feFlood flood-opacity="0" result="BackgroundImageFix"/>
<feColorMatrix in="SourceAlpha" type="matrix" values="0 0 0 0 0 0 0 0 0 0 0 0 0 0 0 0 0 0 127 0" result="hardAlpha"/>
<feOffset dy="4.43636"/>
<feGaussianBlur stdDeviation="2.21818"/>
<feComposite in2="hardAlpha" operator="out"/>
<feColorMatrix type="matrix" values="0 0 0 0 0 0 0 0 0 0 0 0 0 0 0 0 0 0 0.25 0"/>
<feBlend mode="normal" in2="BackgroundImageFix" result="effect1_dropShadow_255_130"/>
<feBlend mode="normal" in="SourceGraphic" in2="effect1_dropShadow_255_130" result="shape"/>
<feGaussianBlur stdDeviation="2.82818" result="effect2_foregroundBlur_255_130"/>
</filter>
<linearGradient id="paint0_linear_255_130" x1="17.4815" y1="14.5723" x2="17.4815" y2="36.7541" gradientUnits="userSpaceOnUse">
<stop stop-color="white"/>
<stop offset="1" stop-color="#9A9A9A"/>
</linearGradient>
<linearGradient id="paint1_linear_255_130" x1="5.38701" y1="0" x2="5.38701" y2="10.774" gradientUnits="userSpaceOnUse">
<stop stop-color="white"/>
<stop offset="1" stop-color="#9A9A9A"/>
</linearGradient>
<clipPath id="clip0_255_130">
<rect x="9" y="8.5" width="31" height="31" rx="6.76364" fill="white"/>
</clipPath>
<clipPath id="clip1_255_130">
<rect x="7.5" y="6.80859" width="34.3818" height="34.3818" rx="4.43636" fill="white"/>
</clipPath>
</defs>
</svg>
