<svg width="183" height="22" viewBox="0 0 183 22" fill="none" xmlns="http://www.w3.org/2000/svg">
<path d="M8.75391 12.4717C8.75391 12.1064 8.67871 11.7842 8.52832 11.5049C8.37793 11.2256 8.16667 10.9749 7.89453 10.7529C7.60807 10.5452 7.2679 10.359 6.87402 10.1943C6.4873 10.0225 6.05404 9.86849 5.57422 9.73242C4.83659 9.52474 4.15625 9.27051 3.5332 8.96973C2.91732 8.66178 2.39095 8.31803 1.9541 7.93848C1.51725 7.55176 1.1735 7.11491 0.922852 6.62793C0.679362 6.13379 0.557617 5.57878 0.557617 4.96289C0.557617 4.29688 0.700846 3.69889 0.987305 3.16895C1.27376 2.63184 1.66048 2.1735 2.14746 1.79395C2.63444 1.42155 3.2002 1.13867 3.84473 0.945312C4.49642 0.744792 5.18034 0.644531 5.89648 0.644531C6.6556 0.644531 7.361 0.762695 8.0127 0.999023C8.67155 1.22819 9.24447 1.55046 9.73145 1.96582C10.2184 2.38835 10.6016 2.89323 10.8809 3.48047C11.1673 4.06055 11.3105 4.70508 11.3105 5.41406H8.75391C8.7181 5.02018 8.63216 4.66211 8.49609 4.33984C8.36719 4.01042 8.18457 3.72754 7.94824 3.49121C7.70475 3.26204 7.40755 3.08301 7.05664 2.9541C6.71289 2.81803 6.31543 2.75 5.86426 2.75C5.47038 2.75 5.10514 2.80371 4.76855 2.91113C4.43913 3.01139 4.15267 3.15462 3.90918 3.34082C3.66569 3.53418 3.47591 3.76693 3.33984 4.03906C3.20378 4.3112 3.13574 4.61556 3.13574 4.95215C3.1429 5.31022 3.236 5.62533 3.41504 5.89746C3.59408 6.16243 3.83398 6.39518 4.13477 6.5957C4.44271 6.79622 4.79362 6.97168 5.1875 7.12207C5.58854 7.27246 6.00749 7.41211 6.44434 7.54102C6.99577 7.69857 7.53288 7.89551 8.05566 8.13184C8.58561 8.361 9.07259 8.6403 9.5166 8.96973C10.068 9.38509 10.5085 9.88281 10.8379 10.4629C11.1745 11.0358 11.3428 11.6982 11.3428 12.4502C11.3428 13.1449 11.196 13.7572 10.9023 14.2871C10.6159 14.8171 10.2292 15.2575 9.74219 15.6084C9.24805 15.9736 8.67513 16.2493 8.02344 16.4355C7.37174 16.6146 6.68424 16.7041 5.96094 16.7041C5.19466 16.7041 4.43913 16.5859 3.69434 16.3496C2.94954 16.1061 2.30143 15.7552 1.75 15.2969C1.24154 14.8672 0.836914 14.3623 0.536133 13.7822C0.242513 13.2021 0.0921224 12.5361 0.0849609 11.7842H2.66309C2.69889 12.264 2.79915 12.6829 2.96387 13.041C3.13574 13.3919 3.36849 13.682 3.66211 13.9111C3.94857 14.1475 4.28516 14.3229 4.67188 14.4375C5.06576 14.5521 5.49544 14.6094 5.96094 14.6094C6.35482 14.6094 6.72005 14.5628 7.05664 14.4697C7.40039 14.3766 7.69759 14.237 7.94824 14.0508C8.19173 13.8717 8.38509 13.6497 8.52832 13.3848C8.67871 13.1198 8.75391 12.8154 8.75391 12.4717ZM15.3389 21.1943C15.0882 21.1943 14.8483 21.1729 14.6191 21.1299C14.3971 21.0941 14.1823 21.0511 13.9746 21.001L14.3291 18.9922C14.4723 18.9993 14.6335 19.0065 14.8125 19.0137C14.9987 19.028 15.1491 19.0352 15.2637 19.0352C15.5143 19.0352 15.7399 18.96 15.9404 18.8096C16.141 18.6663 16.3164 18.5016 16.4668 18.3154C16.61 18.1292 16.7246 17.9645 16.8105 17.8213C16.9036 17.6781 16.9896 17.5277 17.0684 17.3701L17.7988 15.9844L12.8467 4.87695H15.6719L18.5615 11.9775L18.959 13.2559L19.4424 12.0098L22.2461 4.87695H25.0928L19.1953 18.2617C19.0592 18.5625 18.8874 18.8812 18.6797 19.2178C18.4792 19.5615 18.2249 19.8766 17.917 20.1631C17.609 20.4567 17.2438 20.7002 16.8213 20.8936C16.3988 21.0941 15.9046 21.1943 15.3389 21.1943ZM27.0908 16.5V4.87695H29.4111L29.5723 6.53125C29.7298 6.30924 29.9017 6.10514 30.0879 5.91895C30.2812 5.72559 30.4854 5.55371 30.7002 5.40332C31.0439 5.16699 31.4199 4.98438 31.8281 4.85547C32.2363 4.72656 32.666 4.66211 33.1172 4.66211C33.7116 4.66211 34.2559 4.74805 34.75 4.91992C35.2441 5.0918 35.6667 5.36393 36.0176 5.73633C36.3685 6.10872 36.6406 6.58496 36.834 7.16504C37.0273 7.73796 37.124 8.43262 37.124 9.24902V16.5H34.5566V9.29199C34.5566 8.81217 34.5029 8.41113 34.3955 8.08887C34.2881 7.7666 34.1305 7.50879 33.9229 7.31543C33.7152 7.12207 33.4645 6.986 33.1709 6.90723C32.8773 6.82129 32.5407 6.77832 32.1611 6.77832C31.846 6.77832 31.5524 6.82129 31.2803 6.90723C31.0081 6.986 30.7611 7.10059 30.5391 7.25098C30.3672 7.36556 30.2061 7.50521 30.0557 7.66992C29.9053 7.83464 29.7728 8.01367 29.6582 8.20703V16.5H27.0908ZM45.46 2.04102V4.87695H49.832V6.7998H45.46V12.3535C45.46 12.7832 45.5101 13.1449 45.6104 13.4385C45.7178 13.7249 45.8646 13.9505 46.0508 14.1152C46.237 14.2871 46.459 14.4089 46.7168 14.4805C46.9746 14.5521 47.2575 14.5879 47.5654 14.5879C47.7874 14.5879 48.0166 14.5771 48.2529 14.5557C48.4893 14.5342 48.7184 14.5055 48.9404 14.4697C49.1553 14.4411 49.3558 14.4089 49.542 14.373C49.7354 14.3301 49.8965 14.2943 50.0254 14.2656L50.3047 16.0381C50.1185 16.1527 49.8929 16.2529 49.6279 16.3389C49.3701 16.4176 49.0908 16.4857 48.79 16.543C48.4893 16.6003 48.1742 16.6432 47.8447 16.6719C47.5225 16.7077 47.2002 16.7256 46.8779 16.7256C46.2907 16.7256 45.75 16.6468 45.2559 16.4893C44.7689 16.3245 44.3499 16.0703 43.999 15.7266C43.6481 15.39 43.3724 14.9567 43.1719 14.4268C42.9785 13.8968 42.8818 13.2594 42.8818 12.5146V6.7998H40.0674V4.87695H42.8818V2.04102H45.46ZM56.084 6.53125C56.2344 6.30208 56.4027 6.09082 56.5889 5.89746C56.7751 5.7041 56.972 5.53581 57.1797 5.39258C57.502 5.15625 57.8564 4.97721 58.2432 4.85547C58.637 4.72656 59.0524 4.66211 59.4893 4.66211C60.098 4.66211 60.653 4.75163 61.1543 4.93066C61.6628 5.1097 62.096 5.389 62.4541 5.76855C62.8122 6.14811 63.0879 6.63509 63.2812 7.22949C63.4818 7.81673 63.582 8.52214 63.582 9.3457V16.5H61.0146V9.32422C61.0146 8.89453 60.9609 8.51855 60.8535 8.19629C60.7533 7.87402 60.6029 7.61263 60.4023 7.41211C60.1947 7.19727 59.9404 7.03971 59.6396 6.93945C59.346 6.83203 59.0059 6.77832 58.6191 6.77832C58.3184 6.77832 58.0319 6.81413 57.7598 6.88574C57.4948 6.95736 57.2513 7.0612 57.0293 7.19727C56.8431 7.30469 56.6676 7.43359 56.5029 7.58398C56.3454 7.73438 56.2057 7.90267 56.084 8.08887V16.5H53.5166V0H56.084V6.53125ZM72.1543 16.7148C71.2949 16.7148 70.5072 16.5716 69.791 16.2852C69.082 15.9987 68.4733 15.6012 67.9648 15.0928C67.4564 14.5915 67.0625 14.0007 66.7832 13.3203C66.5111 12.6328 66.375 11.8916 66.375 11.0967V10.6562C66.375 9.74674 66.5182 8.92318 66.8047 8.18555C67.0911 7.44792 67.485 6.81771 67.9863 6.29492C68.4876 5.77214 69.0677 5.37109 69.7266 5.0918C70.3926 4.80534 71.1016 4.66211 71.8535 4.66211C72.6914 4.66211 73.4326 4.80534 74.0771 5.0918C74.7217 5.37109 75.2624 5.76139 75.6992 6.2627C76.1361 6.77116 76.4655 7.3763 76.6875 8.07812C76.9095 8.77995 77.0205 9.54622 77.0205 10.377V11.4834H68.9639V11.5371C69.0426 12.0456 69.1644 12.4717 69.3291 12.8154C69.4938 13.1592 69.7194 13.4671 70.0059 13.7393C70.2923 14.0257 70.6289 14.2477 71.0156 14.4053C71.4095 14.5628 71.8392 14.6416 72.3047 14.6416C72.9421 14.6416 73.5365 14.5199 74.0879 14.2764C74.6393 14.0257 75.0941 13.6712 75.4521 13.2129L76.8271 14.5449C76.4404 15.1035 75.846 15.6048 75.0439 16.0488C74.249 16.4928 73.2858 16.7148 72.1543 16.7148ZM71.8428 6.74609C71.4775 6.74609 71.1374 6.81413 70.8223 6.9502C70.5143 7.0791 70.2386 7.2653 69.9951 7.50879C69.7516 7.75944 69.5475 8.06022 69.3828 8.41113C69.2181 8.76204 69.0964 9.15951 69.0176 9.60352H74.4854V9.43164C74.4854 9.09505 74.4245 8.76204 74.3027 8.43262C74.181 8.09603 74.0091 7.80241 73.7871 7.55176C73.5723 7.30827 73.3001 7.11491 72.9707 6.97168C72.6484 6.82129 72.2725 6.74609 71.8428 6.74609ZM85.0986 2.04102V4.87695H89.4707V6.7998H85.0986V12.3535C85.0986 12.7832 85.1488 13.1449 85.249 13.4385C85.3564 13.7249 85.5033 13.9505 85.6895 14.1152C85.8757 14.2871 86.0977 14.4089 86.3555 14.4805C86.6133 14.5521 86.8962 14.5879 87.2041 14.5879C87.4261 14.5879 87.6553 14.5771 87.8916 14.5557C88.1279 14.5342 88.3571 14.5055 88.5791 14.4697C88.7939 14.4411 88.9945 14.4089 89.1807 14.373C89.374 14.3301 89.5352 14.2943 89.6641 14.2656L89.9434 16.0381C89.7572 16.1527 89.5316 16.2529 89.2666 16.3389C89.0088 16.4176 88.7295 16.4857 88.4287 16.543C88.1279 16.6003 87.8128 16.6432 87.4834 16.6719C87.1611 16.7077 86.8389 16.7256 86.5166 16.7256C85.9294 16.7256 85.3887 16.6468 84.8945 16.4893C84.4076 16.3245 83.9886 16.0703 83.6377 15.7266C83.2868 15.39 83.0111 14.9567 82.8105 14.4268C82.6172 13.8968 82.5205 13.2594 82.5205 12.5146V6.7998H79.7061V4.87695H82.5205V2.04102H85.0986ZM93.7461 4.87695H99.9121V14.373H103.328V16.5H93.7461V14.373H97.3232V7.01465H93.7461V4.87695ZM97.0869 1.86914C97.0869 1.66146 97.1227 1.47168 97.1943 1.2998C97.266 1.12077 97.3698 0.966797 97.5059 0.837891C97.6348 0.716146 97.7887 0.623047 97.9678 0.558594C98.154 0.486979 98.3617 0.451172 98.5908 0.451172C98.9775 0.451172 99.2891 0.551432 99.5254 0.751953C99.7689 0.945312 99.9085 1.19596 99.9443 1.50391C99.9945 1.81901 99.9408 2.09473 99.7832 2.33105C99.6257 2.56022 99.3965 2.71419 99.0957 2.79297C98.9453 2.92904 98.7663 3.01855 98.5586 3.06152C98.3509 3.10449 98.1217 3.08659 97.8711 3.00781C97.6133 2.92904 97.4163 2.78939 97.2803 2.58887C97.1514 2.38118 97.0869 2.14128 97.0869 1.86914ZM111.428 14.6523C111.75 14.6523 112.058 14.6058 112.352 14.5127C112.652 14.4124 112.917 14.2728 113.146 14.0938C113.368 13.9147 113.544 13.7035 113.673 13.46C113.809 13.2165 113.877 12.9479 113.877 12.6543H116.294C116.301 13.2201 116.172 13.7536 115.907 14.2549C115.649 14.749 115.299 15.1751 114.854 15.5332C114.403 15.9056 113.884 16.1992 113.297 16.4141C112.717 16.6217 112.104 16.7256 111.46 16.7256C110.565 16.7256 109.781 16.5716 109.107 16.2637C108.441 15.9486 107.886 15.526 107.442 14.9961C106.991 14.4661 106.651 13.8503 106.422 13.1484C106.193 12.4395 106.078 11.6839 106.078 10.8818V10.5059C106.078 9.71094 106.189 8.95898 106.411 8.25C106.64 7.54102 106.98 6.92155 107.432 6.3916C107.883 5.86165 108.441 5.44271 109.107 5.13477C109.781 4.81966 110.561 4.66211 111.449 4.66211C112.151 4.66211 112.799 4.76953 113.394 4.98438C113.995 5.19922 114.511 5.5 114.94 5.88672C115.37 6.27344 115.703 6.73535 115.939 7.27246C116.183 7.80957 116.301 8.40039 116.294 9.04492H113.877C113.877 8.72982 113.816 8.43262 113.694 8.15332C113.58 7.87402 113.415 7.63053 113.2 7.42285C112.978 7.21517 112.713 7.05046 112.405 6.92871C112.104 6.80697 111.779 6.74609 111.428 6.74609C110.891 6.74609 110.443 6.8571 110.085 7.0791C109.734 7.29395 109.455 7.57682 109.247 7.92773C109.025 8.27865 108.868 8.67969 108.774 9.13086C108.688 9.58203 108.646 10.0404 108.646 10.5059V10.8818C108.646 11.3545 108.688 11.82 108.774 12.2783C108.868 12.7295 109.021 13.127 109.236 13.4707C109.444 13.8288 109.727 14.1152 110.085 14.3301C110.443 14.5449 110.891 14.6523 111.428 14.6523ZM129.356 18.5303H119.538V16.5H129.356V18.5303ZM140.389 13.3525C140.389 13.152 140.342 12.973 140.249 12.8154C140.163 12.6579 140.016 12.5075 139.809 12.3643C139.587 12.2354 139.297 12.1136 138.938 11.999C138.58 11.8844 138.133 11.777 137.596 11.6768C136.923 11.5407 136.307 11.3724 135.748 11.1719C135.197 10.9714 134.72 10.7279 134.319 10.4414C133.925 10.1693 133.618 9.84701 133.396 9.47461C133.174 9.10221 133.062 8.66895 133.062 8.1748C133.062 7.70215 133.174 7.25456 133.396 6.83203C133.625 6.40234 133.951 6.02637 134.373 5.7041C134.788 5.38184 135.29 5.1276 135.877 4.94141C136.471 4.75521 137.13 4.66211 137.854 4.66211C138.627 4.66211 139.322 4.75879 139.938 4.95215C140.553 5.13835 141.076 5.39616 141.506 5.72559C141.928 6.05501 142.254 6.44531 142.483 6.89648C142.713 7.34766 142.827 7.83464 142.827 8.35742H140.26C140.26 8.14258 140.213 7.93848 140.12 7.74512C140.034 7.5446 139.905 7.36556 139.733 7.20801C139.533 7.02181 139.275 6.875 138.96 6.76758C138.645 6.65299 138.276 6.5957 137.854 6.5957C137.467 6.5957 137.127 6.63867 136.833 6.72461C136.547 6.80339 136.31 6.91439 136.124 7.05762C135.938 7.18652 135.798 7.34049 135.705 7.51953C135.612 7.69141 135.565 7.87402 135.565 8.06738C135.565 8.2679 135.605 8.45052 135.684 8.61523C135.762 8.77279 135.902 8.91243 136.103 9.03418C136.289 9.16309 136.547 9.28125 136.876 9.38867C137.213 9.49609 137.635 9.59277 138.144 9.67871C138.853 9.80762 139.501 9.96517 140.088 10.1514C140.675 10.3376 141.176 10.5667 141.592 10.8389C142.007 11.1253 142.329 11.4619 142.559 11.8486C142.788 12.2354 142.902 12.6937 142.902 13.2236C142.902 13.7393 142.781 14.2119 142.537 14.6416C142.301 15.0713 141.964 15.4401 141.527 15.748C141.083 16.056 140.553 16.2959 139.938 16.4678C139.322 16.6396 138.638 16.7256 137.886 16.7256C137.048 16.7256 136.303 16.6146 135.651 16.3926C135.007 16.1706 134.466 15.877 134.029 15.5117C133.585 15.1536 133.249 14.7419 133.02 14.2764C132.79 13.8109 132.676 13.3382 132.676 12.8584H135.168C135.189 13.2165 135.283 13.5208 135.447 13.7715C135.619 14.015 135.834 14.2119 136.092 14.3623C136.342 14.5199 136.629 14.6344 136.951 14.7061C137.273 14.7705 137.599 14.8027 137.929 14.8027C138.373 14.8027 138.759 14.7562 139.089 14.6631C139.425 14.57 139.694 14.4447 139.895 14.2871C140.059 14.1582 140.181 14.0186 140.26 13.8682C140.346 13.7106 140.389 13.5387 140.389 13.3525ZM145.534 10.5811C145.534 9.736 145.656 8.9554 145.899 8.23926C146.143 7.51595 146.497 6.88932 146.963 6.35938C147.421 5.82943 147.983 5.41406 148.649 5.11328C149.315 4.8125 150.075 4.66211 150.927 4.66211C151.779 4.66211 152.538 4.8125 153.204 5.11328C153.877 5.41406 154.447 5.82943 154.912 6.35938C155.37 6.88932 155.721 7.51595 155.965 8.23926C156.208 8.9554 156.33 9.736 156.33 10.5811V10.8066C156.33 11.6589 156.208 12.443 155.965 13.1592C155.721 13.8753 155.37 14.4984 154.912 15.0283C154.454 15.5583 153.888 15.9736 153.215 16.2744C152.549 16.5752 151.793 16.7256 150.948 16.7256C150.096 16.7256 149.333 16.5752 148.66 16.2744C147.987 15.9736 147.421 15.5583 146.963 15.0283C146.497 14.4984 146.143 13.8753 145.899 13.1592C145.656 12.443 145.534 11.6589 145.534 10.8066V10.5811ZM148.102 10.8066C148.102 11.3294 148.155 11.8236 148.263 12.2891C148.377 12.7546 148.553 13.1628 148.789 13.5137C149.018 13.8646 149.312 14.1439 149.67 14.3516C150.028 14.5521 150.454 14.6523 150.948 14.6523C151.428 14.6523 151.847 14.5521 152.205 14.3516C152.563 14.1439 152.857 13.8646 153.086 13.5137C153.315 13.1628 153.483 12.7546 153.591 12.2891C153.705 11.8236 153.763 11.3294 153.763 10.8066V10.5811C153.763 10.0726 153.705 9.58561 153.591 9.12012C153.476 8.65462 153.308 8.24642 153.086 7.89551C152.85 7.5446 152.552 7.2653 152.194 7.05762C151.843 6.84993 151.421 6.74609 150.927 6.74609C150.44 6.74609 150.017 6.84993 149.659 7.05762C149.308 7.2653 149.018 7.5446 148.789 7.89551C148.553 8.24642 148.377 8.65462 148.263 9.12012C148.155 9.58561 148.102 10.0726 148.102 10.5811V10.8066ZM166.836 16.5L166.686 14.8779C166.292 15.458 165.812 15.9128 165.246 16.2422C164.68 16.5645 164.047 16.7256 163.345 16.7256C162.743 16.7256 162.192 16.6325 161.69 16.4463C161.196 16.2529 160.77 15.9557 160.412 15.5547C160.061 15.1536 159.789 14.6416 159.596 14.0186C159.402 13.3883 159.306 12.6364 159.306 11.7627V4.87695H161.873V11.7842C161.873 12.3213 161.912 12.7725 161.991 13.1377C162.07 13.4958 162.195 13.7822 162.367 13.9971C162.539 14.2191 162.757 14.3766 163.022 14.4697C163.287 14.5628 163.599 14.6094 163.957 14.6094C164.329 14.6094 164.662 14.57 164.956 14.4912C165.25 14.4053 165.507 14.2907 165.729 14.1475C165.916 14.0186 166.08 13.8682 166.224 13.6963C166.367 13.5173 166.489 13.3203 166.589 13.1055V4.87695H169.167V16.5H166.836ZM172.927 0H179.189V14.373H182.713V16.5H172.927V14.373H176.601V2.1377H172.927V0Z" fill="#525252"/>
</svg>
