<svg width="193" height="45" viewBox="0 0 193 45" fill="none" xmlns="http://www.w3.org/2000/svg">
<path d="M10.818 3.002H6.57V14H4.554V3.002H0.288V1.22H10.818V3.002ZM17.571 6.296C16.803 6.32 16.125 6.5 15.537 6.836C14.949 7.16 14.523 7.628 14.259 8.24V14H12.279V4.586H14.115V6.692C14.451 6.044 14.877 5.516 15.393 5.108C15.921 4.7 16.479 4.496 17.067 4.496C17.187 4.496 17.283 4.496 17.355 4.496C17.439 4.496 17.511 4.502 17.571 4.514V6.296ZM21.9094 14.18C20.9374 14.18 20.1994 13.862 19.6954 13.226C19.1914 12.578 18.9394 11.618 18.9394 10.346V4.586H20.9194V9.95C20.9194 11.642 21.5134 12.488 22.7014 12.488C23.2774 12.488 23.8174 12.314 24.3214 11.966C24.8254 11.618 25.2154 11.114 25.4914 10.454V4.586H27.4714V11.66C27.4714 11.888 27.5134 12.05 27.5974 12.146C27.6814 12.242 27.8314 12.296 28.0474 12.308V14C27.8314 14.036 27.6454 14.06 27.4894 14.072C27.3334 14.084 27.1954 14.09 27.0754 14.09C26.3314 14.03 25.9114 13.688 25.8154 13.064L25.7794 12.092C25.3594 12.776 24.8134 13.298 24.1414 13.658C23.4694 14.006 22.7254 14.18 21.9094 14.18ZM33.5609 14.18C33.1769 14.18 32.7869 14.15 32.3909 14.09C32.0069 14.03 31.6229 13.946 31.2389 13.838C30.8669 13.718 30.5069 13.58 30.1589 13.424C29.8229 13.256 29.5229 13.07 29.2589 12.866L30.0869 11.534C31.2389 12.338 32.3849 12.74 33.5249 12.74C34.1249 12.74 34.5989 12.626 34.9469 12.398C35.2949 12.17 35.4689 11.846 35.4689 11.426C35.4689 11.03 35.2709 10.742 34.8749 10.562C34.4909 10.37 33.8729 10.172 33.0209 9.968C32.4329 9.824 31.9289 9.68 31.5089 9.536C31.0889 9.38 30.7469 9.212 30.4829 9.032C30.2189 8.84 30.0269 8.618 29.9069 8.366C29.7869 8.102 29.7269 7.79 29.7269 7.43C29.7269 6.95 29.8229 6.524 30.0149 6.152C30.2069 5.78 30.4649 5.468 30.7889 5.216C31.1249 4.952 31.5149 4.754 31.9589 4.622C32.4149 4.49 32.9009 4.424 33.4169 4.424C34.1009 4.424 34.7609 4.532 35.3969 4.748C36.0329 4.964 36.6029 5.258 37.1069 5.63L36.2609 6.836C35.3609 6.164 34.4009 5.828 33.3809 5.828C32.8769 5.828 32.4509 5.936 32.1029 6.152C31.7549 6.356 31.5809 6.686 31.5809 7.142C31.5809 7.334 31.6169 7.496 31.6889 7.628C31.7609 7.76 31.8749 7.874 32.0309 7.97C32.1989 8.066 32.4149 8.156 32.6789 8.24C32.9429 8.312 33.2669 8.396 33.6509 8.492C34.2989 8.648 34.8569 8.804 35.3249 8.96C35.7929 9.116 36.1769 9.302 36.4769 9.518C36.7889 9.722 37.0169 9.968 37.1609 10.256C37.3049 10.532 37.3769 10.868 37.3769 11.264C37.3769 11.708 37.2869 12.11 37.1069 12.47C36.9269 12.83 36.6689 13.136 36.3329 13.388C36.0089 13.64 35.6069 13.838 35.1269 13.982C34.6589 14.114 34.1369 14.18 33.5609 14.18ZM44.2717 13.514C44.0077 13.634 43.6537 13.772 43.2097 13.928C42.7777 14.072 42.3037 14.144 41.7877 14.144C41.4757 14.144 41.1817 14.102 40.9057 14.018C40.6417 13.934 40.4017 13.808 40.1857 13.64C39.9817 13.472 39.8197 13.256 39.6997 12.992C39.5797 12.716 39.5197 12.386 39.5197 12.002V6.116H38.2597V4.586H39.5197V1.49H41.4997V4.586H43.5517V6.116H41.4997V11.372C41.4997 11.708 41.5957 11.954 41.7877 12.11C41.9797 12.254 42.2137 12.326 42.4897 12.326C42.7657 12.326 43.0297 12.278 43.2817 12.182C43.5337 12.086 43.7197 12.008 43.8397 11.948L44.2717 13.514ZM49.8563 14.18C49.1243 14.18 48.4583 14.054 47.8583 13.802C47.2583 13.538 46.7423 13.184 46.3103 12.74C45.8903 12.296 45.5603 11.78 45.3203 11.192C45.0923 10.604 44.9783 9.98 44.9783 9.32C44.9783 8.66 45.0923 8.036 45.3203 7.448C45.5603 6.848 45.8903 6.326 46.3103 5.882C46.7423 5.426 47.2583 5.072 47.8583 4.82C48.4583 4.556 49.1303 4.424 49.8743 4.424C50.6063 4.424 51.2663 4.556 51.8543 4.82C52.4543 5.084 52.9643 5.438 53.3843 5.882C53.8043 6.314 54.1223 6.824 54.3383 7.412C54.5663 7.988 54.6803 8.594 54.6803 9.23C54.6803 9.374 54.6743 9.512 54.6623 9.644C54.6503 9.764 54.6383 9.866 54.6263 9.95H47.0843C47.1203 10.37 47.2163 10.748 47.3723 11.084C47.5403 11.42 47.7503 11.714 48.0023 11.966C48.2663 12.206 48.5603 12.392 48.8843 12.524C49.2203 12.656 49.5683 12.722 49.9283 12.722C50.1923 12.722 50.4503 12.692 50.7023 12.632C50.9663 12.56 51.2063 12.464 51.4223 12.344C51.6383 12.212 51.8303 12.056 51.9983 11.876C52.1663 11.696 52.2983 11.498 52.3943 11.282L54.0863 11.768C53.7623 12.476 53.2223 13.058 52.4663 13.514C51.7223 13.958 50.8523 14.18 49.8563 14.18ZM52.7183 8.582C52.6823 8.186 52.5803 7.82 52.4123 7.484C52.2563 7.148 52.0523 6.866 51.8003 6.638C51.5483 6.398 51.2543 6.212 50.9183 6.08C50.5823 5.948 50.2283 5.882 49.8563 5.882C49.4843 5.882 49.1303 5.948 48.7943 6.08C48.4703 6.212 48.1823 6.398 47.9303 6.638C47.6783 6.866 47.4743 7.148 47.3183 7.484C47.1623 7.82 47.0663 8.186 47.0303 8.582H52.7183ZM60.1654 14.18C59.5174 14.18 58.9174 14.054 58.3654 13.802C57.8254 13.538 57.3574 13.184 56.9614 12.74C56.5654 12.296 56.2534 11.78 56.0254 11.192C55.8094 10.604 55.7014 9.974 55.7014 9.302C55.7014 8.63 55.8034 8 56.0074 7.412C56.2234 6.812 56.5174 6.296 56.8894 5.864C57.2614 5.42 57.7054 5.072 58.2214 4.82C58.7494 4.556 59.3194 4.424 59.9314 4.424C60.6634 4.424 61.3174 4.604 61.8934 4.964C62.4694 5.324 62.9194 5.792 63.2434 6.368V0.86H65.2234V11.66C65.2234 12.068 65.4154 12.284 65.7994 12.308V14C65.5954 14.036 65.4154 14.06 65.2594 14.072C65.1034 14.084 64.9594 14.09 64.8274 14.09C64.0834 14.018 63.6634 13.676 63.5674 13.064L63.5314 12.29C63.1714 12.902 62.6914 13.37 62.0914 13.694C61.4914 14.018 60.8494 14.18 60.1654 14.18ZM60.6694 12.488C60.9214 12.488 61.1854 12.44 61.4614 12.344C61.7374 12.248 61.9954 12.116 62.2354 11.948C62.4754 11.78 62.6854 11.582 62.8654 11.354C63.0454 11.126 63.1714 10.88 63.2434 10.616V8.15C63.1354 7.862 62.9854 7.598 62.7934 7.358C62.6014 7.106 62.3794 6.89 62.1274 6.71C61.8874 6.518 61.6294 6.374 61.3534 6.278C61.0774 6.17 60.8014 6.116 60.5254 6.116C60.1054 6.116 59.7214 6.206 59.3734 6.386C59.0374 6.566 58.7434 6.806 58.4914 7.106C58.2514 7.406 58.0654 7.754 57.9334 8.15C57.8014 8.534 57.7354 8.93 57.7354 9.338C57.7354 9.77 57.8074 10.178 57.9514 10.562C58.1074 10.946 58.3114 11.282 58.5634 11.57C58.8274 11.846 59.1394 12.068 59.4994 12.236C59.8594 12.404 60.2494 12.488 60.6694 12.488ZM77.2792 14.18C76.5472 14.18 75.8872 14.012 75.2992 13.676C74.7232 13.328 74.2672 12.866 73.9312 12.29V14H72.1852V0.86H74.1652V6.368C74.5372 5.768 74.9992 5.294 75.5512 4.946C76.1152 4.598 76.7752 4.424 77.5312 4.424C78.1552 4.424 78.7252 4.562 79.2412 4.838C79.7572 5.102 80.1952 5.462 80.5552 5.918C80.9272 6.362 81.2092 6.884 81.4012 7.484C81.6052 8.072 81.7072 8.69 81.7072 9.338C81.7072 10.01 81.5932 10.64 81.3652 11.228C81.1372 11.816 80.8252 12.332 80.4292 12.776C80.0332 13.208 79.5652 13.55 79.0252 13.802C78.4852 14.054 77.9032 14.18 77.2792 14.18ZM76.7572 12.488C77.1892 12.488 77.5852 12.404 77.9452 12.236C78.3052 12.056 78.6112 11.822 78.8632 11.534C79.1272 11.246 79.3312 10.916 79.4752 10.544C79.6192 10.16 79.6912 9.758 79.6912 9.338C79.6912 8.918 79.6192 8.516 79.4752 8.132C79.3432 7.736 79.1512 7.394 78.8992 7.106C78.6592 6.806 78.3652 6.566 78.0172 6.386C77.6812 6.206 77.3092 6.116 76.9012 6.116C76.5892 6.116 76.2952 6.17 76.0192 6.278C75.7552 6.386 75.5032 6.536 75.2632 6.728C75.0352 6.908 74.8252 7.124 74.6332 7.376C74.4532 7.616 74.2972 7.874 74.1652 8.15V10.634C74.2372 10.91 74.3632 11.162 74.5432 11.39C74.7232 11.606 74.9332 11.798 75.1732 11.966C75.4252 12.134 75.6892 12.266 75.9652 12.362C76.2412 12.446 76.5052 12.488 76.7572 12.488ZM83.4595 16.232C83.6275 16.268 83.7835 16.292 83.9275 16.304C84.0715 16.316 84.2035 16.322 84.3235 16.322C84.4795 16.322 84.6175 16.304 84.7375 16.268C84.8575 16.232 84.9715 16.136 85.0795 15.98C85.1995 15.836 85.3255 15.608 85.4575 15.296C85.6015 14.984 85.7695 14.552 85.9615 14L82.1095 4.586H84.1435L87.0595 12.254L89.6515 4.586H91.5235L87.2215 16.178C86.9815 16.826 86.6215 17.306 86.1415 17.618C85.6615 17.93 85.1035 18.086 84.4675 18.086C84.1195 18.086 83.7835 18.038 83.4595 17.942V16.232ZM96.5756 14C96.5756 13.496 96.6116 13.028 96.6836 12.596C96.7676 12.164 96.9176 11.762 97.1336 11.39C97.3496 11.006 97.6436 10.646 98.0156 10.31C98.3876 9.974 98.8676 9.644 99.4556 9.32C99.8756 9.092 100.272 8.882 100.644 8.69C101.016 8.498 101.34 8.306 101.616 8.114C101.904 7.922 102.132 7.724 102.3 7.52C102.468 7.304 102.552 7.058 102.552 6.782C102.552 6.398 102.384 6.056 102.048 5.756C101.724 5.444 101.25 5.288 100.626 5.288C100.302 5.288 100.002 5.336 99.7256 5.432C99.4616 5.516 99.2156 5.63 98.9876 5.774C98.7716 5.906 98.5796 6.056 98.4116 6.224C98.2436 6.392 98.0936 6.554 97.9616 6.71L96.7016 5.252C96.8216 5.12 97.0076 4.958 97.2596 4.766C97.5236 4.562 97.8356 4.37 98.1956 4.19C98.5676 4.01 98.9876 3.86 99.4556 3.74C99.9236 3.608 100.434 3.542 100.986 3.542C101.562 3.542 102.078 3.62 102.534 3.776C103.002 3.92 103.392 4.124 103.704 4.388C104.028 4.652 104.274 4.97 104.442 5.342C104.61 5.702 104.694 6.092 104.694 6.512C104.694 6.956 104.604 7.352 104.424 7.7C104.244 8.036 104.022 8.33 103.758 8.582C103.494 8.834 103.206 9.056 102.894 9.248C102.582 9.428 102.294 9.59 102.03 9.734C101.79 9.854 101.52 9.998 101.22 10.166C100.932 10.334 100.65 10.52 100.374 10.724C100.11 10.928 99.8696 11.156 99.6536 11.408C99.4496 11.66 99.3056 11.93 99.2216 12.218H104.892V14H96.5756ZM115.902 8.726C115.902 9.518 115.782 10.25 115.542 10.922C115.314 11.582 114.996 12.158 114.588 12.65C114.18 13.13 113.694 13.508 113.13 13.784C112.578 14.048 111.972 14.18 111.312 14.18C110.652 14.18 110.04 14.048 109.476 13.784C108.912 13.508 108.426 13.13 108.018 12.65C107.61 12.158 107.286 11.582 107.046 10.922C106.818 10.25 106.704 9.518 106.704 8.726C106.704 7.934 106.818 7.208 107.046 6.548C107.286 5.876 107.61 5.3 108.018 4.82C108.426 4.328 108.912 3.944 109.476 3.668C110.04 3.392 110.652 3.254 111.312 3.254C111.972 3.254 112.578 3.392 113.13 3.668C113.694 3.944 114.18 4.328 114.588 4.82C114.996 5.3 115.314 5.876 115.542 6.548C115.782 7.208 115.902 7.934 115.902 8.726ZM113.904 8.726C113.904 8.186 113.838 7.694 113.706 7.25C113.586 6.806 113.406 6.422 113.166 6.098C112.938 5.774 112.662 5.528 112.338 5.36C112.026 5.18 111.684 5.09 111.312 5.09C110.916 5.09 110.556 5.18 110.232 5.36C109.92 5.528 109.644 5.774 109.404 6.098C109.176 6.422 108.996 6.806 108.864 7.25C108.744 7.694 108.684 8.186 108.684 8.726C108.684 9.266 108.744 9.758 108.864 10.202C108.996 10.646 109.176 11.03 109.404 11.354C109.644 11.666 109.92 11.912 110.232 12.092C110.556 12.26 110.916 12.344 111.312 12.344C111.684 12.344 112.026 12.26 112.338 12.092C112.662 11.912 112.938 11.666 113.166 11.354C113.406 11.03 113.586 10.646 113.706 10.202C113.838 9.758 113.904 9.266 113.904 8.726ZM126.976 8.726C126.976 9.518 126.856 10.25 126.616 10.922C126.388 11.582 126.07 12.158 125.662 12.65C125.254 13.13 124.768 13.508 124.204 13.784C123.652 14.048 123.046 14.18 122.386 14.18C121.726 14.18 121.114 14.048 120.55 13.784C119.986 13.508 119.5 13.13 119.092 12.65C118.684 12.158 118.36 11.582 118.12 10.922C117.892 10.25 117.778 9.518 117.778 8.726C117.778 7.934 117.892 7.208 118.12 6.548C118.36 5.876 118.684 5.3 119.092 4.82C119.5 4.328 119.986 3.944 120.55 3.668C121.114 3.392 121.726 3.254 122.386 3.254C123.046 3.254 123.652 3.392 124.204 3.668C124.768 3.944 125.254 4.328 125.662 4.82C126.07 5.3 126.388 5.876 126.616 6.548C126.856 7.208 126.976 7.934 126.976 8.726ZM124.978 8.726C124.978 8.186 124.912 7.694 124.78 7.25C124.66 6.806 124.48 6.422 124.24 6.098C124.012 5.774 123.736 5.528 123.412 5.36C123.1 5.18 122.758 5.09 122.386 5.09C121.99 5.09 121.63 5.18 121.306 5.36C120.994 5.528 120.718 5.774 120.478 6.098C120.25 6.422 120.07 6.806 119.938 7.25C119.818 7.694 119.758 8.186 119.758 8.726C119.758 9.266 119.818 9.758 119.938 10.202C120.07 10.646 120.25 11.03 120.478 11.354C120.718 11.666 120.994 11.912 121.306 12.092C121.63 12.26 121.99 12.344 122.386 12.344C122.758 12.344 123.1 12.26 123.412 12.092C123.736 11.912 124.012 11.666 124.24 11.354C124.48 11.03 124.66 10.646 124.78 10.202C124.912 9.758 124.978 9.266 124.978 8.726ZM135.62 14L132.614 9.662L131.048 11.138V14H129.068V0.86H131.048V9.194L135.386 4.604H137.528L133.892 8.546L137.744 14H135.62ZM144.42 6.818V8.402H142.44V10.58H140.64V8.402H138.642V6.818H140.64V4.64H142.44V6.818H144.42ZM0.576 36.284C0.576 35.624 0.69 35 0.918 34.412C1.146 33.824 1.47 33.308 1.89 32.864C2.322 32.42 2.838 32.072 3.438 31.82C4.038 31.556 4.71 31.424 5.454 31.424C6.426 31.424 7.26 31.64 7.956 32.072C8.664 32.492 9.192 33.056 9.54 33.764L7.614 34.376C7.386 33.98 7.08 33.674 6.696 33.458C6.312 33.23 5.886 33.116 5.418 33.116C5.022 33.116 4.65 33.194 4.302 33.35C3.966 33.506 3.672 33.728 3.42 34.016C3.168 34.292 2.97 34.622 2.826 35.006C2.682 35.39 2.61 35.816 2.61 36.284C2.61 36.74 2.682 37.166 2.826 37.562C2.982 37.946 3.186 38.282 3.438 38.57C3.702 38.858 4.002 39.086 4.338 39.254C4.686 39.41 5.052 39.488 5.436 39.488C5.676 39.488 5.916 39.458 6.156 39.398C6.396 39.326 6.612 39.23 6.804 39.11C7.008 38.99 7.182 38.852 7.326 38.696C7.482 38.54 7.596 38.372 7.668 38.192L9.612 38.768C9.3 39.476 8.778 40.058 8.046 40.514C7.314 40.958 6.45 41.18 5.454 41.18C4.722 41.18 4.056 41.048 3.456 40.784C2.856 40.52 2.34 40.166 1.908 39.722C1.488 39.266 1.158 38.744 0.918 38.156C0.69 37.568 0.576 36.944 0.576 36.284ZM15.3672 41.18C14.6232 41.18 13.9512 41.048 13.3512 40.784C12.7632 40.52 12.2592 40.166 11.8392 39.722C11.4192 39.278 11.0952 38.762 10.8672 38.174C10.6392 37.574 10.5252 36.95 10.5252 36.302C10.5252 35.654 10.6392 35.036 10.8672 34.448C11.0952 33.848 11.4192 33.326 11.8392 32.882C12.2712 32.438 12.7812 32.084 13.3692 31.82C13.9692 31.556 14.6352 31.424 15.3672 31.424C16.0992 31.424 16.7592 31.556 17.3472 31.82C17.9472 32.084 18.4572 32.438 18.8772 32.882C19.3092 33.326 19.6392 33.848 19.8672 34.448C20.0952 35.036 20.2092 35.654 20.2092 36.302C20.2092 36.95 20.0952 37.574 19.8672 38.174C19.6392 38.762 19.3092 39.278 18.8772 39.722C18.4572 40.166 17.9472 40.52 17.3472 40.784C16.7592 41.048 16.0992 41.18 15.3672 41.18ZM12.5592 36.32C12.5592 36.776 12.6312 37.196 12.7752 37.58C12.9192 37.964 13.1172 38.3 13.3692 38.588C13.6212 38.864 13.9152 39.086 14.2512 39.254C14.5992 39.41 14.9712 39.488 15.3672 39.488C15.7632 39.488 16.1292 39.41 16.4652 39.254C16.8132 39.086 17.1132 38.858 17.3652 38.57C17.6172 38.282 17.8152 37.946 17.9592 37.562C18.1032 37.178 18.1752 36.758 18.1752 36.302C18.1752 35.858 18.1032 35.444 17.9592 35.06C17.8152 34.664 17.6172 34.322 17.3652 34.034C17.1132 33.746 16.8132 33.524 16.4652 33.368C16.1292 33.2 15.7632 33.116 15.3672 33.116C14.9832 33.116 14.6172 33.2 14.2692 33.368C13.9332 33.536 13.6392 33.764 13.3872 34.052C13.1352 34.34 12.9312 34.682 12.7752 35.078C12.6312 35.462 12.5592 35.876 12.5592 36.32ZM36.3298 41H34.3498V35.726C34.3498 34.85 34.1998 34.208 33.8998 33.8C33.6118 33.392 33.1978 33.188 32.6578 33.188C32.0938 33.188 31.5778 33.398 31.1098 33.818C30.6418 34.226 30.3058 34.76 30.1018 35.42V41H28.1218V35.726C28.1218 34.838 27.9778 34.196 27.6898 33.8C27.4138 33.392 26.9998 33.188 26.4478 33.188C25.8958 33.188 25.3798 33.392 24.8998 33.8C24.4318 34.208 24.0958 34.742 23.8918 35.402V41H21.9118V31.586H23.7118V33.476C24.0838 32.816 24.5698 32.312 25.1698 31.964C25.7818 31.604 26.4778 31.424 27.2578 31.424C28.0498 31.424 28.6678 31.628 29.1118 32.036C29.5558 32.444 29.8378 32.954 29.9578 33.566C30.3538 32.87 30.8518 32.342 31.4518 31.982C32.0518 31.61 32.7298 31.424 33.4858 31.424C34.0378 31.424 34.4938 31.532 34.8538 31.748C35.2258 31.952 35.5198 32.228 35.7358 32.576C35.9518 32.924 36.1018 33.332 36.1858 33.8C36.2818 34.256 36.3298 34.742 36.3298 35.258V41ZM43.8867 41.18C43.1307 41.18 42.4647 41 41.8887 40.64C41.3247 40.28 40.8687 39.812 40.5207 39.236V44.834H38.5407V31.586H40.2867V33.278C40.6467 32.714 41.1147 32.264 41.6907 31.928C42.2667 31.592 42.9147 31.424 43.6347 31.424C44.2707 31.424 44.8587 31.556 45.3987 31.82C45.9387 32.084 46.4067 32.438 46.8027 32.882C47.1987 33.326 47.5047 33.842 47.7207 34.43C47.9487 35.018 48.0627 35.636 48.0627 36.284C48.0627 36.968 47.9607 37.61 47.7567 38.21C47.5527 38.798 47.2647 39.314 46.8927 39.758C46.5207 40.19 46.0767 40.538 45.5607 40.802C45.0567 41.054 44.4987 41.18 43.8867 41.18ZM43.2567 39.488C43.6647 39.488 44.0427 39.398 44.3907 39.218C44.7387 39.038 45.0327 38.798 45.2727 38.498C45.5127 38.198 45.6987 37.856 45.8307 37.472C45.9747 37.088 46.0467 36.692 46.0467 36.284C46.0467 35.852 45.9687 35.444 45.8127 35.06C45.6687 34.676 45.4647 34.34 45.2007 34.052C44.9367 33.764 44.6247 33.536 44.2647 33.368C43.9047 33.2 43.5207 33.116 43.1127 33.116C42.8607 33.116 42.5967 33.164 42.3207 33.26C42.0447 33.356 41.7807 33.488 41.5287 33.656C41.2887 33.824 41.0787 34.022 40.8987 34.25C40.7187 34.466 40.5927 34.706 40.5207 34.97V37.436C40.6407 37.724 40.7967 37.994 40.9887 38.246C41.1807 38.498 41.3967 38.714 41.6367 38.894C41.8767 39.074 42.1347 39.218 42.4107 39.326C42.6867 39.434 42.9687 39.488 43.2567 39.488ZM52.3463 41.18C51.8903 41.18 51.4643 41.108 51.0683 40.964C50.6843 40.808 50.3483 40.598 50.0603 40.334C49.7843 40.07 49.5623 39.758 49.3943 39.398C49.2383 39.038 49.1603 38.648 49.1603 38.228C49.1603 37.784 49.2563 37.382 49.4483 37.022C49.6403 36.662 49.9103 36.35 50.2583 36.086C50.6183 35.822 51.0383 35.618 51.5183 35.474C52.0103 35.33 52.5503 35.258 53.1383 35.258C53.5823 35.258 54.0203 35.3 54.4523 35.384C54.8843 35.456 55.2743 35.558 55.6223 35.69V35.042C55.6223 34.346 55.4243 33.806 55.0283 33.422C54.6323 33.026 54.0623 32.828 53.3183 32.828C52.8143 32.828 52.3163 32.924 51.8243 33.116C51.3443 33.296 50.8463 33.56 50.3303 33.908L49.7183 32.648C50.9303 31.832 52.1903 31.424 53.4983 31.424C54.7943 31.424 55.8023 31.754 56.5223 32.414C57.2423 33.074 57.6023 34.022 57.6023 35.258V38.66C57.6023 38.888 57.6443 39.05 57.7283 39.146C57.8123 39.242 57.9563 39.296 58.1602 39.308V41C57.9683 41.036 57.7883 41.06 57.6203 41.072C57.4643 41.084 57.3203 41.09 57.1883 41.09C56.8043 41.066 56.5103 40.964 56.3063 40.784C56.1143 40.604 55.9943 40.364 55.9463 40.064L55.8923 39.47C55.4723 40.022 54.9503 40.448 54.3263 40.748C53.7143 41.036 53.0543 41.18 52.3463 41.18ZM52.8863 39.722C53.3663 39.722 53.8163 39.638 54.2363 39.47C54.6683 39.29 55.0043 39.044 55.2443 38.732C55.4963 38.516 55.6223 38.288 55.6223 38.048V36.806C55.2863 36.674 54.9263 36.572 54.5423 36.5C54.1703 36.428 53.8043 36.392 53.4443 36.392C52.7363 36.392 52.1543 36.548 51.6983 36.86C51.2543 37.16 51.0322 37.562 51.0322 38.066C51.0322 38.534 51.2063 38.93 51.5543 39.254C51.9023 39.566 52.3463 39.722 52.8863 39.722ZM68.4811 41H66.5011V35.726C66.5011 34.838 66.3571 34.196 66.0691 33.8C65.7811 33.392 65.3671 33.188 64.8271 33.188C64.5391 33.188 64.2451 33.242 63.9451 33.35C63.6571 33.458 63.3871 33.614 63.1351 33.818C62.8831 34.01 62.6551 34.244 62.4511 34.52C62.2591 34.784 62.1091 35.078 62.0011 35.402V41H60.0211V31.586H61.8211V33.476C62.1811 32.84 62.7031 32.342 63.3871 31.982C64.0711 31.61 64.8271 31.424 65.6551 31.424C66.2191 31.424 66.6811 31.526 67.0411 31.73C67.4131 31.934 67.7011 32.216 67.9051 32.576C68.1211 32.924 68.2711 33.332 68.3551 33.8C68.4391 34.256 68.4811 34.742 68.4811 35.258V41ZM70.7086 41V31.586H72.6886V41H70.7086ZM70.7086 30.038V27.86H72.6886V30.038H70.7086ZM79.3173 41.18C78.5853 41.18 77.9193 41.054 77.3193 40.802C76.7193 40.538 76.2033 40.184 75.7713 39.74C75.3513 39.296 75.0213 38.78 74.7813 38.192C74.5533 37.604 74.4393 36.98 74.4393 36.32C74.4393 35.66 74.5533 35.036 74.7813 34.448C75.0213 33.848 75.3513 33.326 75.7713 32.882C76.2033 32.426 76.7193 32.072 77.3193 31.82C77.9193 31.556 78.5913 31.424 79.3353 31.424C80.0673 31.424 80.7273 31.556 81.3153 31.82C81.9153 32.084 82.4253 32.438 82.8453 32.882C83.2653 33.314 83.5833 33.824 83.7993 34.412C84.0273 34.988 84.1413 35.594 84.1413 36.23C84.1413 36.374 84.1353 36.512 84.1233 36.644C84.1113 36.764 84.0993 36.866 84.0873 36.95H76.5453C76.5813 37.37 76.6773 37.748 76.8333 38.084C77.0013 38.42 77.2113 38.714 77.4633 38.966C77.7273 39.206 78.0213 39.392 78.3453 39.524C78.6813 39.656 79.0293 39.722 79.3893 39.722C79.6533 39.722 79.9113 39.692 80.1633 39.632C80.4273 39.56 80.6673 39.464 80.8833 39.344C81.0993 39.212 81.2913 39.056 81.4593 38.876C81.6273 38.696 81.7593 38.498 81.8553 38.282L83.5473 38.768C83.2233 39.476 82.6833 40.058 81.9273 40.514C81.1833 40.958 80.3133 41.18 79.3173 41.18ZM82.1793 35.582C82.1433 35.186 82.0413 34.82 81.8733 34.484C81.7173 34.148 81.5133 33.866 81.2613 33.638C81.0093 33.398 80.7153 33.212 80.3793 33.08C80.0433 32.948 79.6893 32.882 79.3173 32.882C78.9453 32.882 78.5913 32.948 78.2553 33.08C77.9313 33.212 77.6433 33.398 77.3913 33.638C77.1393 33.866 76.9353 34.148 76.7793 34.484C76.6233 34.82 76.5273 35.186 76.4913 35.582H82.1793ZM89.2484 41.18C88.8644 41.18 88.4744 41.15 88.0784 41.09C87.6944 41.03 87.3104 40.946 86.9264 40.838C86.5544 40.718 86.1944 40.58 85.8464 40.424C85.5104 40.256 85.2104 40.07 84.9464 39.866L85.7744 38.534C86.9264 39.338 88.0724 39.74 89.2124 39.74C89.8124 39.74 90.2864 39.626 90.6344 39.398C90.9824 39.17 91.1564 38.846 91.1564 38.426C91.1564 38.03 90.9584 37.742 90.5624 37.562C90.1784 37.37 89.5604 37.172 88.7084 36.968C88.1204 36.824 87.6164 36.68 87.1964 36.536C86.7764 36.38 86.4344 36.212 86.1704 36.032C85.9064 35.84 85.7144 35.618 85.5944 35.366C85.4744 35.102 85.4144 34.79 85.4144 34.43C85.4144 33.95 85.5104 33.524 85.7024 33.152C85.8944 32.78 86.1524 32.468 86.4764 32.216C86.8124 31.952 87.2024 31.754 87.6464 31.622C88.1024 31.49 88.5884 31.424 89.1044 31.424C89.7884 31.424 90.4484 31.532 91.0844 31.748C91.7204 31.964 92.2904 32.258 92.7944 32.63L91.9484 33.836C91.0484 33.164 90.0884 32.828 89.0684 32.828C88.5644 32.828 88.1384 32.936 87.7904 33.152C87.4424 33.356 87.2684 33.686 87.2684 34.142C87.2684 34.334 87.3044 34.496 87.3764 34.628C87.4484 34.76 87.5624 34.874 87.7184 34.97C87.8864 35.066 88.1024 35.156 88.3664 35.24C88.6304 35.312 88.9544 35.396 89.3384 35.492C89.9864 35.648 90.5444 35.804 91.0124 35.96C91.4804 36.116 91.8644 36.302 92.1644 36.518C92.4764 36.722 92.7044 36.968 92.8484 37.256C92.9924 37.532 93.0644 37.868 93.0644 38.264C93.0644 38.708 92.9744 39.11 92.7944 39.47C92.6144 39.83 92.3564 40.136 92.0204 40.388C91.6964 40.64 91.2944 40.838 90.8144 40.982C90.3464 41.114 89.8244 41.18 89.2484 41.18ZM107.592 41H105.612V35.726C105.612 34.838 105.468 34.196 105.18 33.8C104.892 33.392 104.478 33.188 103.938 33.188C103.65 33.188 103.356 33.242 103.056 33.35C102.768 33.458 102.498 33.614 102.246 33.818C101.994 34.01 101.766 34.244 101.562 34.52C101.37 34.784 101.22 35.078 101.112 35.402V41H99.1325V31.586H100.932V33.476C101.292 32.84 101.814 32.342 102.498 31.982C103.182 31.61 103.938 31.424 104.766 31.424C105.33 31.424 105.792 31.526 106.152 31.73C106.524 31.934 106.812 32.216 107.016 32.576C107.232 32.924 107.382 33.332 107.466 33.8C107.55 34.256 107.592 34.742 107.592 35.258V41ZM112.358 41.18C111.902 41.18 111.476 41.108 111.08 40.964C110.696 40.808 110.36 40.598 110.072 40.334C109.796 40.07 109.574 39.758 109.406 39.398C109.25 39.038 109.172 38.648 109.172 38.228C109.172 37.784 109.268 37.382 109.46 37.022C109.652 36.662 109.922 36.35 110.27 36.086C110.63 35.822 111.05 35.618 111.53 35.474C112.022 35.33 112.562 35.258 113.15 35.258C113.594 35.258 114.032 35.3 114.464 35.384C114.896 35.456 115.286 35.558 115.634 35.69V35.042C115.634 34.346 115.436 33.806 115.04 33.422C114.644 33.026 114.074 32.828 113.33 32.828C112.826 32.828 112.328 32.924 111.836 33.116C111.356 33.296 110.858 33.56 110.342 33.908L109.73 32.648C110.942 31.832 112.202 31.424 113.51 31.424C114.806 31.424 115.814 31.754 116.534 32.414C117.254 33.074 117.614 34.022 117.614 35.258V38.66C117.614 38.888 117.656 39.05 117.74 39.146C117.824 39.242 117.968 39.296 118.172 39.308V41C117.98 41.036 117.8 41.06 117.632 41.072C117.476 41.084 117.332 41.09 117.2 41.09C116.816 41.066 116.522 40.964 116.318 40.784C116.126 40.604 116.006 40.364 115.958 40.064L115.904 39.47C115.484 40.022 114.962 40.448 114.338 40.748C113.726 41.036 113.066 41.18 112.358 41.18ZM112.898 39.722C113.378 39.722 113.828 39.638 114.248 39.47C114.68 39.29 115.016 39.044 115.256 38.732C115.508 38.516 115.634 38.288 115.634 38.048V36.806C115.298 36.674 114.938 36.572 114.554 36.5C114.182 36.428 113.816 36.392 113.456 36.392C112.748 36.392 112.166 36.548 111.71 36.86C111.266 37.16 111.044 37.562 111.044 38.066C111.044 38.534 111.218 38.93 111.566 39.254C111.914 39.566 112.358 39.722 112.898 39.722ZM125.166 40.514C124.902 40.634 124.548 40.772 124.104 40.928C123.672 41.072 123.198 41.144 122.682 41.144C122.37 41.144 122.076 41.102 121.8 41.018C121.536 40.934 121.296 40.808 121.08 40.64C120.876 40.472 120.714 40.256 120.594 39.992C120.474 39.716 120.414 39.386 120.414 39.002V33.116H119.154V31.586H120.414V28.49H122.394V31.586H124.446V33.116H122.394V38.372C122.394 38.708 122.49 38.954 122.682 39.11C122.874 39.254 123.108 39.326 123.384 39.326C123.66 39.326 123.924 39.278 124.176 39.182C124.428 39.086 124.614 39.008 124.734 38.948L125.166 40.514ZM126.449 41V31.586H128.429V41H126.449ZM126.449 30.038V27.86H128.429V30.038H126.449ZM135.022 41.18C134.278 41.18 133.606 41.048 133.006 40.784C132.418 40.52 131.914 40.166 131.494 39.722C131.074 39.278 130.75 38.762 130.522 38.174C130.294 37.574 130.18 36.95 130.18 36.302C130.18 35.654 130.294 35.036 130.522 34.448C130.75 33.848 131.074 33.326 131.494 32.882C131.926 32.438 132.436 32.084 133.024 31.82C133.624 31.556 134.29 31.424 135.022 31.424C135.754 31.424 136.414 31.556 137.002 31.82C137.602 32.084 138.112 32.438 138.532 32.882C138.964 33.326 139.294 33.848 139.522 34.448C139.75 35.036 139.864 35.654 139.864 36.302C139.864 36.95 139.75 37.574 139.522 38.174C139.294 38.762 138.964 39.278 138.532 39.722C138.112 40.166 137.602 40.52 137.002 40.784C136.414 41.048 135.754 41.18 135.022 41.18ZM132.214 36.32C132.214 36.776 132.286 37.196 132.43 37.58C132.574 37.964 132.772 38.3 133.024 38.588C133.276 38.864 133.57 39.086 133.906 39.254C134.254 39.41 134.626 39.488 135.022 39.488C135.418 39.488 135.784 39.41 136.12 39.254C136.468 39.086 136.768 38.858 137.02 38.57C137.272 38.282 137.47 37.946 137.614 37.562C137.758 37.178 137.83 36.758 137.83 36.302C137.83 35.858 137.758 35.444 137.614 35.06C137.47 34.664 137.272 34.322 137.02 34.034C136.768 33.746 136.468 33.524 136.12 33.368C135.784 33.2 135.418 33.116 135.022 33.116C134.638 33.116 134.272 33.2 133.924 33.368C133.588 33.536 133.294 33.764 133.042 34.052C132.79 34.34 132.586 34.682 132.43 35.078C132.286 35.462 132.214 35.876 132.214 36.32ZM150.026 41H148.046V35.726C148.046 34.838 147.902 34.196 147.614 33.8C147.326 33.392 146.912 33.188 146.372 33.188C146.084 33.188 145.79 33.242 145.49 33.35C145.202 33.458 144.932 33.614 144.68 33.818C144.428 34.01 144.2 34.244 143.996 34.52C143.804 34.784 143.654 35.078 143.546 35.402V41H141.566V31.586H143.366V33.476C143.726 32.84 144.248 32.342 144.932 31.982C145.616 31.61 146.372 31.424 147.2 31.424C147.764 31.424 148.226 31.526 148.586 31.73C148.958 31.934 149.246 32.216 149.45 32.576C149.666 32.924 149.816 33.332 149.9 33.8C149.984 34.256 150.026 34.742 150.026 35.258V41ZM163.904 31.586H165.794L161.816 41H160.196L158.432 36.626L156.686 41H155.048L151.088 31.586H152.96L156.002 39.092L157.37 35.6L155.732 31.604H157.352L158.432 34.556L159.512 31.604H161.132L159.512 35.6L160.88 39.092L163.904 31.586ZM167.09 41V31.586H169.07V41H167.09ZM167.09 30.038V27.86H169.07V30.038H167.09ZM175.302 41.18C174.654 41.18 174.054 41.054 173.502 40.802C172.962 40.538 172.494 40.184 172.098 39.74C171.702 39.296 171.39 38.78 171.162 38.192C170.946 37.604 170.838 36.974 170.838 36.302C170.838 35.63 170.94 35 171.144 34.412C171.36 33.812 171.654 33.296 172.026 32.864C172.398 32.42 172.842 32.072 173.358 31.82C173.886 31.556 174.456 31.424 175.068 31.424C175.8 31.424 176.454 31.604 177.03 31.964C177.606 32.324 178.056 32.792 178.38 33.368V27.86H180.36V38.66C180.36 39.068 180.552 39.284 180.936 39.308V41C180.732 41.036 180.552 41.06 180.396 41.072C180.24 41.084 180.096 41.09 179.964 41.09C179.22 41.018 178.8 40.676 178.704 40.064L178.668 39.29C178.308 39.902 177.828 40.37 177.228 40.694C176.628 41.018 175.986 41.18 175.302 41.18ZM175.806 39.488C176.058 39.488 176.322 39.44 176.598 39.344C176.874 39.248 177.132 39.116 177.372 38.948C177.612 38.78 177.822 38.582 178.002 38.354C178.182 38.126 178.308 37.88 178.38 37.616V35.15C178.272 34.862 178.122 34.598 177.93 34.358C177.738 34.106 177.516 33.89 177.264 33.71C177.024 33.518 176.766 33.374 176.49 33.278C176.214 33.17 175.938 33.116 175.662 33.116C175.242 33.116 174.858 33.206 174.51 33.386C174.174 33.566 173.88 33.806 173.628 34.106C173.388 34.406 173.202 34.754 173.07 35.15C172.938 35.534 172.872 35.93 172.872 36.338C172.872 36.77 172.944 37.178 173.088 37.562C173.244 37.946 173.448 38.282 173.7 38.57C173.964 38.846 174.276 39.068 174.636 39.236C174.996 39.404 175.386 39.488 175.806 39.488ZM187.212 41.18C186.48 41.18 185.814 41.054 185.214 40.802C184.614 40.538 184.098 40.184 183.666 39.74C183.246 39.296 182.916 38.78 182.676 38.192C182.448 37.604 182.334 36.98 182.334 36.32C182.334 35.66 182.448 35.036 182.676 34.448C182.916 33.848 183.246 33.326 183.666 32.882C184.098 32.426 184.614 32.072 185.214 31.82C185.814 31.556 186.486 31.424 187.23 31.424C187.962 31.424 188.622 31.556 189.21 31.82C189.81 32.084 190.32 32.438 190.74 32.882C191.16 33.314 191.478 33.824 191.694 34.412C191.922 34.988 192.036 35.594 192.036 36.23C192.036 36.374 192.03 36.512 192.018 36.644C192.006 36.764 191.994 36.866 191.982 36.95H184.44C184.476 37.37 184.572 37.748 184.728 38.084C184.896 38.42 185.106 38.714 185.358 38.966C185.622 39.206 185.916 39.392 186.24 39.524C186.576 39.656 186.924 39.722 187.284 39.722C187.548 39.722 187.806 39.692 188.058 39.632C188.322 39.56 188.562 39.464 188.778 39.344C188.994 39.212 189.186 39.056 189.354 38.876C189.522 38.696 189.654 38.498 189.75 38.282L191.442 38.768C191.118 39.476 190.578 40.058 189.822 40.514C189.078 40.958 188.208 41.18 187.212 41.18ZM190.074 35.582C190.038 35.186 189.936 34.82 189.768 34.484C189.612 34.148 189.408 33.866 189.156 33.638C188.904 33.398 188.61 33.212 188.274 33.08C187.938 32.948 187.584 32.882 187.212 32.882C186.84 32.882 186.486 32.948 186.15 33.08C185.826 33.212 185.538 33.398 185.286 33.638C185.034 33.866 184.83 34.148 184.674 34.484C184.518 34.82 184.422 35.186 184.386 35.582H190.074Z" fill="#757575"/>
</svg>
