<svg width="188" height="32" viewBox="0 0 188 32" fill="none" xmlns="http://www.w3.org/2000/svg">
<path d="M9.10547 12.0933C9.10547 11.8267 9.06445 11.5874 8.98242 11.3755C8.90723 11.1567 8.76367 10.9585 8.55176 10.7808C8.33984 10.5962 8.04248 10.415 7.65967 10.2373C7.27686 10.0596 6.78125 9.875 6.17285 9.68359C5.49609 9.46484 4.85352 9.21875 4.24512 8.94531C3.64355 8.67188 3.11035 8.354 2.64551 7.9917C2.1875 7.62256 1.8252 7.19531 1.55859 6.70996C1.29883 6.22461 1.16895 5.66064 1.16895 5.01807C1.16895 4.396 1.30566 3.83203 1.5791 3.32617C1.85254 2.81348 2.23535 2.37598 2.72754 2.01367C3.21973 1.64453 3.80078 1.36084 4.4707 1.1626C5.14746 0.964355 5.88916 0.865234 6.6958 0.865234C7.79639 0.865234 8.75684 1.06348 9.57715 1.45996C10.3975 1.85645 11.0332 2.3999 11.4844 3.09033C11.9424 3.78076 12.1714 4.57031 12.1714 5.45898H9.11572C9.11572 5.02148 9.02344 4.63867 8.83887 4.31055C8.66113 3.97559 8.3877 3.7124 8.01855 3.521C7.65625 3.32959 7.19824 3.23389 6.64453 3.23389C6.11133 3.23389 5.66699 3.31592 5.31152 3.47998C4.95605 3.63721 4.68945 3.85254 4.51172 4.12598C4.33398 4.39258 4.24512 4.69336 4.24512 5.02832C4.24512 5.28125 4.30664 5.51025 4.42969 5.71533C4.55957 5.92041 4.75098 6.11182 5.00391 6.28955C5.25684 6.46729 5.56787 6.63477 5.93701 6.79199C6.30615 6.94922 6.7334 7.10303 7.21875 7.25342C8.03223 7.49951 8.74658 7.77637 9.36182 8.08398C9.98389 8.3916 10.5034 8.73682 10.9204 9.11963C11.3374 9.50244 11.6519 9.93652 11.8638 10.4219C12.0757 10.9072 12.1816 11.4575 12.1816 12.0728C12.1816 12.7222 12.0552 13.3032 11.8022 13.8159C11.5493 14.3286 11.1836 14.7627 10.7051 15.1182C10.2266 15.4736 9.65576 15.7437 8.99268 15.9282C8.32959 16.1128 7.58789 16.2051 6.76758 16.2051C6.0293 16.2051 5.30127 16.1094 4.5835 15.918C3.86572 15.7197 3.21289 15.4224 2.625 15.0259C2.04395 14.6294 1.5791 14.1235 1.23047 13.5083C0.881836 12.8931 0.70752 12.165 0.70752 11.3242H3.79395C3.79395 11.7891 3.86572 12.1821 4.00928 12.5034C4.15283 12.8247 4.35449 13.0845 4.61426 13.2827C4.88086 13.481 5.19531 13.6245 5.55762 13.7134C5.92676 13.8022 6.33008 13.8467 6.76758 13.8467C7.30078 13.8467 7.73828 13.7715 8.08008 13.6211C8.42871 13.4707 8.68506 13.2622 8.84912 12.9956C9.02002 12.729 9.10547 12.4282 9.10547 12.0933ZM17.252 0.239746V16H14.2989V0.239746H17.252ZM24.2452 4.90527L19.4258 10.4014L16.8418 13.0161L15.7652 10.8833L17.816 8.27881L20.6973 4.90527H24.2452ZM21.1792 16L17.898 10.873L19.9385 9.08887L24.5835 16H21.1792ZM29.0181 14.749L31.961 4.90527H35.1295L30.669 17.6714C30.5733 17.9517 30.4434 18.2524 30.2794 18.5737C30.1221 18.895 29.9068 19.1992 29.6334 19.4863C29.3668 19.7803 29.0284 20.0195 28.6182 20.2041C28.2149 20.3887 27.7193 20.481 27.1314 20.481C26.8512 20.481 26.6221 20.4639 26.4444 20.4297C26.2667 20.3955 26.0548 20.3477 25.8087 20.2861V18.1226C25.8839 18.1226 25.9625 18.1226 26.0445 18.1226C26.1265 18.1294 26.2052 18.1328 26.2804 18.1328C26.67 18.1328 26.9879 18.0884 27.234 17.9995C27.4801 17.9106 27.6783 17.7739 27.8287 17.5894C27.9791 17.4116 28.0987 17.1792 28.1876 16.8921L29.0181 14.749ZM27.7877 4.90527L30.1973 12.9443L30.6178 16.0718L28.608 16.2871L24.6192 4.90527H27.7877ZM42.1427 1.07031H47.7106C48.8522 1.07031 49.8332 1.24121 50.6535 1.58301C51.4806 1.9248 52.1164 2.43066 52.5607 3.10059C53.005 3.77051 53.2272 4.59424 53.2272 5.57178C53.2272 6.37158 53.0905 7.05859 52.8171 7.63281C52.5504 8.2002 52.1711 8.67529 51.6789 9.05811C51.1935 9.43408 50.6227 9.73486 49.9665 9.96045L48.9923 10.4731H44.1525L44.132 8.07373H47.7311C48.2712 8.07373 48.7189 7.97803 49.0744 7.78662C49.4298 7.59521 49.6964 7.32861 49.8742 6.98682C50.0588 6.64502 50.151 6.24854 50.151 5.79736C50.151 5.31885 50.0622 4.90527 49.8844 4.55664C49.7067 4.20801 49.4367 3.94141 49.0744 3.75684C48.7121 3.57227 48.2575 3.47998 47.7106 3.47998H45.2189V16H42.1427V1.07031ZM50.4894 16L47.0851 9.34521L50.3356 9.32471L53.7809 15.8564V16H50.4894ZM55.1496 10.5654V10.3501C55.1496 9.53662 55.2658 8.78809 55.4982 8.10449C55.7307 7.41406 56.069 6.81592 56.5134 6.31006C56.9577 5.8042 57.5046 5.41113 58.154 5.13086C58.8034 4.84375 59.5485 4.7002 60.3894 4.7002C61.2302 4.7002 61.9787 4.84375 62.635 5.13086C63.2912 5.41113 63.8415 5.8042 64.2858 6.31006C64.737 6.81592 65.0788 7.41406 65.3112 8.10449C65.5437 8.78809 65.6599 9.53662 65.6599 10.3501V10.5654C65.6599 11.3721 65.5437 12.1206 65.3112 12.811C65.0788 13.4946 64.737 14.0928 64.2858 14.6055C63.8415 15.1113 63.2946 15.5044 62.6452 15.7847C61.9958 16.0649 61.2507 16.2051 60.4099 16.2051C59.569 16.2051 58.8205 16.0649 58.1643 15.7847C57.5148 15.5044 56.9646 15.1113 56.5134 14.6055C56.069 14.0928 55.7307 13.4946 55.4982 12.811C55.2658 12.1206 55.1496 11.3721 55.1496 10.5654ZM58.1027 10.3501V10.5654C58.1027 11.0303 58.1437 11.4644 58.2258 11.8677C58.3078 12.271 58.4377 12.6265 58.6154 12.9341C58.8 13.2349 59.0393 13.4707 59.3332 13.6416C59.6271 13.8125 59.986 13.8979 60.4099 13.8979C60.82 13.8979 61.1721 13.8125 61.466 13.6416C61.76 13.4707 61.9958 13.2349 62.1735 12.9341C62.3513 12.6265 62.4812 12.271 62.5632 11.8677C62.6521 11.4644 62.6965 11.0303 62.6965 10.5654V10.3501C62.6965 9.89893 62.6521 9.4751 62.5632 9.07861C62.4812 8.67529 62.3479 8.31982 62.1633 8.01221C61.9855 7.69775 61.7497 7.45166 61.4558 7.27393C61.1618 7.09619 60.8063 7.00732 60.3894 7.00732C59.9724 7.00732 59.6169 7.09619 59.3229 7.27393C59.0358 7.45166 58.8 7.69775 58.6154 8.01221C58.4377 8.31982 58.3078 8.67529 58.2258 9.07861C58.1437 9.4751 58.1027 9.89893 58.1027 10.3501ZM74.2473 13.3442V4.90527H77.2004V16H74.4216L74.2473 13.3442ZM74.5754 11.0679L75.447 11.0474C75.447 11.7856 75.3616 12.4727 75.1907 13.1084C75.0198 13.7373 74.7634 14.2842 74.4216 14.749C74.0798 15.207 73.6492 15.5659 73.1296 15.8257C72.6101 16.0786 71.9983 16.2051 71.2942 16.2051C70.7541 16.2051 70.2551 16.1299 69.7971 15.9795C69.3459 15.8223 68.9563 15.5796 68.6282 15.2515C68.3069 14.9165 68.0539 14.4893 67.8694 13.9697C67.6916 13.4434 67.6028 12.811 67.6028 12.0728V4.90527H70.5559V12.0933C70.5559 12.4214 70.5935 12.6982 70.6687 12.9238C70.7507 13.1494 70.8635 13.334 71.0071 13.4775C71.1506 13.6211 71.3181 13.7236 71.5095 13.7852C71.7078 13.8467 71.9265 13.8774 72.1658 13.8774C72.7742 13.8774 73.2527 13.7544 73.6013 13.5083C73.9568 13.2622 74.2063 12.9272 74.3498 12.5034C74.5002 12.0728 74.5754 11.5942 74.5754 11.0679ZM85.1009 4.90527V6.99707H78.6409V4.90527H85.1009ZM80.2405 2.16748H83.1936V12.6572C83.1936 12.9785 83.2346 13.2246 83.3167 13.3955C83.4055 13.5664 83.5354 13.686 83.7063 13.7544C83.8772 13.8159 84.0926 13.8467 84.3523 13.8467C84.5369 13.8467 84.701 13.8398 84.8445 13.8262C84.9949 13.8057 85.1214 13.7852 85.2239 13.7646L85.2342 15.9385C84.9812 16.0205 84.7078 16.0854 84.4138 16.1333C84.1199 16.1812 83.7952 16.2051 83.4397 16.2051C82.7903 16.2051 82.2229 16.0991 81.7376 15.8872C81.2591 15.6685 80.8899 15.3198 80.6302 14.8413C80.3704 14.3628 80.2405 13.7339 80.2405 12.9546V2.16748ZM92.0989 16.2051C91.2376 16.2051 90.4652 16.0684 89.7816 15.7949C89.098 15.5146 88.5169 15.1284 88.0384 14.6362C87.5667 14.144 87.2044 13.5732 86.9515 12.9238C86.6986 12.2676 86.5721 11.5703 86.5721 10.832V10.4219C86.5721 9.58105 86.6917 8.81201 86.931 8.11475C87.1702 7.41748 87.512 6.8125 87.9564 6.2998C88.4075 5.78711 88.9544 5.39404 89.597 5.12061C90.2396 4.84033 90.9642 4.7002 91.7708 4.7002C92.557 4.7002 93.2542 4.83008 93.8626 5.08984C94.471 5.34961 94.9803 5.71875 95.3904 6.19727C95.8074 6.67578 96.1219 7.25 96.3338 7.91992C96.5457 8.58301 96.6517 9.32129 96.6517 10.1348V11.3652H87.8333V9.39648H93.7498V9.1709C93.7498 8.76074 93.6746 8.39502 93.5242 8.07373C93.3807 7.74561 93.1619 7.48584 92.868 7.29443C92.574 7.10303 92.1981 7.00732 91.7401 7.00732C91.3504 7.00732 91.0154 7.09277 90.7352 7.26367C90.4549 7.43457 90.2259 7.67383 90.0482 7.98145C89.8773 8.28906 89.7474 8.65137 89.6585 9.06836C89.5765 9.47852 89.5355 9.92969 89.5355 10.4219V10.832C89.5355 11.2764 89.597 11.6865 89.72 12.0625C89.8499 12.4385 90.0311 12.7632 90.2635 13.0366C90.5028 13.3101 90.7899 13.522 91.1248 13.6724C91.4666 13.8228 91.8529 13.8979 92.2835 13.8979C92.8167 13.8979 93.3123 13.7954 93.7703 13.5903C94.2352 13.3784 94.6351 13.0605 94.97 12.6367L96.4056 14.1953C96.1732 14.5303 95.8553 14.8516 95.452 15.1592C95.0555 15.4668 94.577 15.7197 94.0164 15.918C93.4559 16.1094 92.8167 16.2051 92.0989 16.2051ZM110.289 1.07031V16H107.223V1.07031H110.289ZM114.883 1.07031V3.47998H102.701V1.07031H114.883ZM118.897 7.3252V16H115.944V4.90527H118.723L118.897 7.3252ZM122.24 4.8335L122.188 7.57129C122.045 7.55078 121.871 7.53369 121.665 7.52002C121.467 7.49951 121.286 7.48926 121.122 7.48926C120.705 7.48926 120.343 7.54395 120.035 7.65332C119.734 7.75586 119.481 7.90967 119.276 8.11475C119.078 8.31982 118.928 8.56934 118.825 8.86328C118.729 9.15723 118.675 9.49219 118.661 9.86816L118.066 9.68359C118.066 8.96582 118.138 8.30615 118.282 7.70459C118.425 7.09619 118.634 6.56641 118.907 6.11523C119.187 5.66406 119.529 5.31543 119.933 5.06934C120.336 4.82324 120.797 4.7002 121.317 4.7002C121.481 4.7002 121.648 4.71387 121.819 4.74121C121.99 4.76172 122.13 4.79248 122.24 4.8335ZM129.484 13.498V8.55566C129.484 8.2002 129.426 7.896 129.31 7.64307C129.193 7.3833 129.012 7.18164 128.766 7.03809C128.527 6.89453 128.216 6.82275 127.833 6.82275C127.505 6.82275 127.221 6.88086 126.982 6.99707C126.743 7.10645 126.558 7.26709 126.428 7.479C126.298 7.68408 126.233 7.92676 126.233 8.20703H123.28C123.28 7.73535 123.39 7.2876 123.608 6.86377C123.827 6.43994 124.145 6.06738 124.562 5.74609C124.979 5.41797 125.475 5.16162 126.049 4.97705C126.63 4.79248 127.279 4.7002 127.997 4.7002C128.858 4.7002 129.624 4.84375 130.294 5.13086C130.964 5.41797 131.49 5.84863 131.873 6.42285C132.263 6.99707 132.457 7.71484 132.457 8.57617V13.3237C132.457 13.9321 132.495 14.4312 132.57 14.8208C132.645 15.2036 132.755 15.5386 132.898 15.8257V16H129.915C129.771 15.6992 129.662 15.3232 129.586 14.8721C129.518 14.4141 129.484 13.9561 129.484 13.498ZM129.874 9.24268L129.894 10.9141H128.243C127.853 10.9141 127.515 10.9585 127.228 11.0474C126.941 11.1362 126.705 11.2627 126.52 11.4268C126.336 11.584 126.199 11.7686 126.11 11.9805C126.028 12.1924 125.987 12.4248 125.987 12.6777C125.987 12.9307 126.045 13.1597 126.162 13.3647C126.278 13.563 126.445 13.7202 126.664 13.8364C126.883 13.9458 127.139 14.0005 127.433 14.0005C127.877 14.0005 128.264 13.9116 128.592 13.7339C128.92 13.5562 129.173 13.3374 129.351 13.0776C129.535 12.8179 129.631 12.5718 129.638 12.3394L130.417 13.5903C130.308 13.8706 130.157 14.1611 129.966 14.4619C129.781 14.7627 129.545 15.0464 129.258 15.313C128.971 15.5728 128.626 15.7881 128.223 15.959C127.819 16.123 127.341 16.2051 126.787 16.2051C126.083 16.2051 125.444 16.0649 124.87 15.7847C124.302 15.4976 123.851 15.1045 123.516 14.6055C123.188 14.0996 123.024 13.5254 123.024 12.8828C123.024 12.3018 123.133 11.7856 123.352 11.3345C123.571 10.8833 123.892 10.5039 124.316 10.1963C124.747 9.88184 125.283 9.646 125.926 9.48877C126.568 9.32471 127.313 9.24268 128.161 9.24268H129.874ZM138.553 13.8467L141.014 4.90527H144.101L140.358 16H138.492L138.553 13.8467ZM136.861 4.90527L139.333 13.8569L139.384 16H137.507L133.765 4.90527H136.861ZM150.596 16.2051C149.735 16.2051 148.962 16.0684 148.279 15.7949C147.595 15.5146 147.014 15.1284 146.536 14.6362C146.064 14.144 145.702 13.5732 145.449 12.9238C145.196 12.2676 145.069 11.5703 145.069 10.832V10.4219C145.069 9.58105 145.189 8.81201 145.428 8.11475C145.668 7.41748 146.009 6.8125 146.454 6.2998C146.905 5.78711 147.452 5.39404 148.094 5.12061C148.737 4.84033 149.461 4.7002 150.268 4.7002C151.054 4.7002 151.752 4.83008 152.36 5.08984C152.968 5.34961 153.478 5.71875 153.888 6.19727C154.305 6.67578 154.619 7.25 154.831 7.91992C155.043 8.58301 155.149 9.32129 155.149 10.1348V11.3652H146.331V9.39648H152.247V9.1709C152.247 8.76074 152.172 8.39502 152.022 8.07373C151.878 7.74561 151.659 7.48584 151.365 7.29443C151.071 7.10303 150.695 7.00732 150.237 7.00732C149.848 7.00732 149.513 7.09277 149.232 7.26367C148.952 7.43457 148.723 7.67383 148.545 7.98145C148.375 8.28906 148.245 8.65137 148.156 9.06836C148.074 9.47852 148.033 9.92969 148.033 10.4219V10.832C148.033 11.2764 148.094 11.6865 148.217 12.0625C148.347 12.4385 148.528 12.7632 148.761 13.0366C149 13.3101 149.287 13.522 149.622 13.6724C149.964 13.8228 150.35 13.8979 150.781 13.8979C151.314 13.8979 151.81 13.7954 152.268 13.5903C152.732 13.3784 153.132 13.0605 153.467 12.6367L154.903 14.1953C154.67 14.5303 154.353 14.8516 153.949 15.1592C153.553 15.4668 153.074 15.7197 152.514 15.918C151.953 16.1094 151.314 16.2051 150.596 16.2051ZM160.158 0.25V16H157.194V0.25H160.158ZM168.807 12.9341C168.807 12.7222 168.745 12.5308 168.622 12.3599C168.499 12.189 168.27 12.0317 167.935 11.8882C167.607 11.7378 167.132 11.6011 166.51 11.478C165.949 11.355 165.426 11.2012 164.941 11.0166C164.463 10.8252 164.046 10.5962 163.69 10.3296C163.341 10.063 163.068 9.74854 162.87 9.38623C162.672 9.01709 162.572 8.59668 162.572 8.125C162.572 7.66016 162.672 7.22266 162.87 6.8125C163.075 6.40234 163.365 6.04004 163.741 5.72559C164.124 5.4043 164.589 5.15479 165.136 4.97705C165.69 4.79248 166.312 4.7002 167.002 4.7002C167.966 4.7002 168.793 4.854 169.484 5.16162C170.181 5.46924 170.714 5.89307 171.083 6.43311C171.459 6.96631 171.647 7.57471 171.647 8.2583H168.694C168.694 7.97119 168.632 7.71484 168.509 7.48926C168.393 7.25684 168.209 7.07568 167.956 6.9458C167.71 6.80908 167.388 6.74072 166.992 6.74072C166.664 6.74072 166.38 6.79883 166.141 6.91504C165.902 7.02441 165.717 7.1748 165.587 7.36621C165.464 7.55078 165.402 7.75586 165.402 7.98145C165.402 8.15234 165.437 8.30615 165.505 8.44287C165.58 8.57275 165.7 8.69238 165.864 8.80176C166.028 8.91113 166.24 9.01367 166.5 9.10938C166.766 9.19824 167.094 9.28027 167.484 9.35547C168.284 9.51953 168.998 9.73486 169.627 10.0015C170.256 10.2612 170.755 10.6167 171.124 11.0679C171.493 11.5122 171.678 12.0967 171.678 12.8213C171.678 13.3135 171.568 13.7646 171.35 14.1748C171.131 14.585 170.817 14.9438 170.406 15.2515C169.996 15.5522 169.504 15.7881 168.93 15.959C168.362 16.123 167.723 16.2051 167.012 16.2051C165.98 16.2051 165.105 16.0205 164.387 15.6514C163.676 15.2822 163.136 14.814 162.767 14.2466C162.405 13.6724 162.224 13.0845 162.224 12.4829H165.023C165.037 12.8862 165.139 13.2109 165.331 13.457C165.529 13.7031 165.778 13.8809 166.079 13.9902C166.387 14.0996 166.718 14.1543 167.074 14.1543C167.457 14.1543 167.775 14.103 168.027 14.0005C168.28 13.8911 168.472 13.7476 168.602 13.5698C168.738 13.3853 168.807 13.1733 168.807 12.9341Z" fill="#525252"/>
<path d="M5.11719 26.7393H6.05469C6.00586 27.1885 5.87728 27.5905 5.66895 27.9453C5.46061 28.3001 5.16602 28.5817 4.78516 28.79C4.4043 28.9951 3.92904 29.0977 3.35938 29.0977C2.94271 29.0977 2.56348 29.0195 2.22168 28.8633C1.88314 28.707 1.5918 28.4857 1.34766 28.1992C1.10352 27.9095 0.914714 27.5628 0.78125 27.1592C0.651042 26.7523 0.585938 26.2998 0.585938 25.8018V25.0938C0.585938 24.5957 0.651042 24.1449 0.78125 23.7412C0.914714 23.3343 1.10514 22.986 1.35254 22.6963C1.60319 22.4066 1.9043 22.1836 2.25586 22.0273C2.60742 21.8711 3.00293 21.793 3.44238 21.793C3.97949 21.793 4.43359 21.8939 4.80469 22.0957C5.17578 22.2975 5.46387 22.5775 5.66895 22.9355C5.87728 23.2904 6.00586 23.7021 6.05469 24.1709H5.11719C5.07161 23.8389 4.98698 23.554 4.86328 23.3164C4.73958 23.0755 4.5638 22.89 4.33594 22.7598C4.10807 22.6296 3.81022 22.5645 3.44238 22.5645C3.12663 22.5645 2.84831 22.6247 2.60742 22.7451C2.36979 22.8656 2.1696 23.0365 2.00684 23.2578C1.84733 23.4792 1.72689 23.7445 1.64551 24.0537C1.56413 24.363 1.52344 24.7064 1.52344 25.084V25.8018C1.52344 26.1501 1.55924 26.4772 1.63086 26.7832C1.70573 27.0892 1.81803 27.3577 1.96777 27.5889C2.11751 27.82 2.30794 28.0023 2.53906 28.1357C2.77018 28.266 3.04362 28.3311 3.35938 28.3311C3.75977 28.3311 4.07878 28.2676 4.31641 28.1406C4.55404 28.0137 4.73307 27.8314 4.85352 27.5938C4.97721 27.3561 5.0651 27.0713 5.11719 26.7393ZM8.20547 24.5469V29H7.30215V23.7168H8.18105L8.20547 24.5469ZM9.85586 23.6875L9.85098 24.5273C9.77611 24.5111 9.70449 24.5013 9.63613 24.498C9.57103 24.4915 9.49616 24.4883 9.41152 24.4883C9.20319 24.4883 9.01927 24.5208 8.85977 24.5859C8.70026 24.651 8.56517 24.7422 8.45449 24.8594C8.34382 24.9766 8.25592 25.1165 8.19082 25.2793C8.12897 25.4388 8.08828 25.6146 8.06875 25.8066L7.81484 25.9531C7.81484 25.6341 7.84577 25.3346 7.90762 25.0547C7.97272 24.7747 8.07201 24.5273 8.20547 24.3125C8.33893 24.0944 8.5082 23.9251 8.71328 23.8047C8.92161 23.681 9.16901 23.6191 9.45547 23.6191C9.52057 23.6191 9.59544 23.6273 9.68008 23.6436C9.76471 23.6566 9.82331 23.6712 9.85586 23.6875ZM12.8855 29.0977C12.5177 29.0977 12.184 29.0358 11.8846 28.9121C11.5883 28.7852 11.3328 28.6077 11.118 28.3799C10.9064 28.152 10.7436 27.8818 10.6297 27.5693C10.5158 27.2568 10.4588 26.915 10.4588 26.5439V26.3389C10.4588 25.9092 10.5223 25.5267 10.6492 25.1914C10.7762 24.8529 10.9487 24.5664 11.1668 24.332C11.3849 24.0977 11.6323 23.9202 11.909 23.7998C12.1857 23.6794 12.4721 23.6191 12.7684 23.6191C13.146 23.6191 13.4715 23.6842 13.7449 23.8145C14.0216 23.9447 14.2479 24.127 14.4236 24.3613C14.5994 24.5924 14.7296 24.8659 14.8143 25.1816C14.8989 25.4941 14.9412 25.8359 14.9412 26.207V26.6123H10.9959V25.875H14.0379V25.8066C14.0249 25.5723 13.976 25.3444 13.8914 25.123C13.81 24.9017 13.6798 24.7194 13.5008 24.5762C13.3217 24.4329 13.0776 24.3613 12.7684 24.3613C12.5633 24.3613 12.3745 24.4053 12.202 24.4932C12.0294 24.5778 11.8813 24.7048 11.7576 24.874C11.6339 25.0433 11.5379 25.25 11.4695 25.4941C11.4012 25.7383 11.367 26.0199 11.367 26.3389V26.5439C11.367 26.7946 11.4012 27.0306 11.4695 27.252C11.5411 27.4701 11.6437 27.6621 11.7771 27.8281C11.9139 27.9941 12.0783 28.1243 12.2703 28.2188C12.4656 28.3132 12.687 28.3604 12.9344 28.3604C13.2534 28.3604 13.5236 28.2952 13.7449 28.165C13.9663 28.0348 14.16 27.8607 14.326 27.6426L14.8729 28.0771C14.7589 28.2497 14.6141 28.4141 14.4383 28.5703C14.2625 28.7266 14.046 28.8535 13.7889 28.9512C13.535 29.0488 13.2339 29.0977 12.8855 29.0977ZM19.2111 28.0967V25.377C19.2111 25.1686 19.1688 24.988 19.0842 24.835C19.0028 24.6787 18.8791 24.5583 18.7131 24.4736C18.5471 24.389 18.342 24.3467 18.0979 24.3467C17.87 24.3467 17.6698 24.3857 17.4973 24.4639C17.328 24.542 17.1945 24.6445 17.0969 24.7715C17.0025 24.8984 16.9553 25.0352 16.9553 25.1816H16.052C16.052 24.9928 16.1008 24.8057 16.1984 24.6201C16.2961 24.4346 16.4361 24.2669 16.6184 24.1172C16.8039 23.9642 17.0253 23.8438 17.2824 23.7559C17.5428 23.6647 17.8326 23.6191 18.1516 23.6191C18.5357 23.6191 18.8742 23.6842 19.1672 23.8145C19.4634 23.9447 19.6945 24.1416 19.8605 24.4053C20.0298 24.6657 20.1145 24.9928 20.1145 25.3867V27.8477C20.1145 28.0234 20.1291 28.2106 20.1584 28.4092C20.191 28.6077 20.2382 28.7786 20.3 28.9219V29H19.3576C19.312 28.8958 19.2762 28.7575 19.2502 28.585C19.2242 28.4092 19.2111 28.2464 19.2111 28.0967ZM19.3674 25.7969L19.3771 26.4316H18.4641C18.2069 26.4316 17.9774 26.4528 17.7756 26.4951C17.5738 26.5342 17.4045 26.5944 17.2678 26.6758C17.1311 26.7572 17.0269 26.8597 16.9553 26.9834C16.8837 27.1038 16.8479 27.2454 16.8479 27.4082C16.8479 27.5742 16.8853 27.7256 16.9602 27.8623C17.035 27.999 17.1473 28.1081 17.2971 28.1895C17.4501 28.2676 17.6372 28.3066 17.8586 28.3066C18.1353 28.3066 18.3794 28.248 18.591 28.1309C18.8026 28.0137 18.9702 27.8704 19.0939 27.7012C19.2209 27.5319 19.2893 27.3675 19.299 27.208L19.6848 27.6426C19.662 27.7793 19.6001 27.9307 19.4992 28.0967C19.3983 28.2627 19.2632 28.4222 19.0939 28.5752C18.9279 28.7249 18.7294 28.8503 18.4982 28.9512C18.2704 29.0488 18.0132 29.0977 17.7268 29.0977C17.3687 29.0977 17.0546 29.0277 16.7844 28.8877C16.5174 28.7477 16.3091 28.5605 16.1594 28.3262C16.0129 28.0885 15.9396 27.8232 15.9396 27.5303C15.9396 27.2471 15.995 26.998 16.1057 26.7832C16.2163 26.5651 16.3758 26.3844 16.5842 26.2412C16.7925 26.0947 17.0432 25.984 17.3361 25.9092C17.6291 25.8343 17.9563 25.7969 18.3176 25.7969H19.3674ZM23.8473 23.7168V24.4102H20.9908V23.7168H23.8473ZM21.9576 22.4326H22.8609V27.6914C22.8609 27.8704 22.8886 28.0055 22.9439 28.0967C22.9993 28.1878 23.0709 28.248 23.1588 28.2773C23.2467 28.3066 23.3411 28.3213 23.442 28.3213C23.5169 28.3213 23.595 28.3148 23.6764 28.3018C23.761 28.2855 23.8245 28.2725 23.8668 28.2627L23.8717 29C23.8001 29.0228 23.7057 29.0439 23.5885 29.0635C23.4745 29.0863 23.3362 29.0977 23.1734 29.0977C22.9521 29.0977 22.7486 29.0537 22.5631 28.9658C22.3775 28.8779 22.2294 28.7314 22.1187 28.5264C22.0113 28.318 21.9576 28.0381 21.9576 27.6865V22.4326ZM25.9883 23.7168V29H25.0801V23.7168H25.9883ZM25.0117 22.3154C25.0117 22.1689 25.0557 22.0452 25.1436 21.9443C25.2347 21.8434 25.3682 21.793 25.5439 21.793C25.7165 21.793 25.8483 21.8434 25.9395 21.9443C26.0339 22.0452 26.0811 22.1689 26.0811 22.3154C26.0811 22.4554 26.0339 22.5758 25.9395 22.6768C25.8483 22.7744 25.7165 22.8232 25.5439 22.8232C25.3682 22.8232 25.2347 22.7744 25.1436 22.6768C25.0557 22.5758 25.0117 22.4554 25.0117 22.3154ZM28.4418 24.8447V29H27.5385V23.7168H28.393L28.4418 24.8447ZM28.227 26.1582L27.851 26.1436C27.8542 25.7822 27.9079 25.4486 28.0121 25.1426C28.1163 24.8333 28.2628 24.5648 28.4516 24.3369C28.6404 24.109 28.865 23.9333 29.1254 23.8096C29.3891 23.6826 29.6804 23.6191 29.9994 23.6191C30.2598 23.6191 30.4942 23.6549 30.7025 23.7266C30.9109 23.7949 31.0883 23.9056 31.2348 24.0586C31.3845 24.2116 31.4984 24.4102 31.5766 24.6543C31.6547 24.8952 31.6938 25.1898 31.6938 25.5381V29H30.7855V25.5283C30.7855 25.2516 30.7449 25.0303 30.6635 24.8643C30.5821 24.695 30.4633 24.5729 30.307 24.498C30.1508 24.4199 29.9587 24.3809 29.7309 24.3809C29.5063 24.3809 29.3012 24.4281 29.1156 24.5225C28.9333 24.6169 28.7755 24.7471 28.642 24.9131C28.5118 25.0791 28.4092 25.2695 28.3344 25.4844C28.2628 25.696 28.227 25.9206 28.227 26.1582ZM36.5887 23.7168H37.409V28.8877C37.409 29.3532 37.3146 29.7503 37.1258 30.0791C36.937 30.4079 36.6733 30.6569 36.3348 30.8262C35.9995 30.9987 35.6121 31.085 35.1727 31.085C34.9904 31.085 34.7755 31.0557 34.5281 30.9971C34.284 30.9417 34.0431 30.8457 33.8055 30.709C33.5711 30.5755 33.3742 30.3949 33.2146 30.167L33.6883 29.6299C33.9096 29.8968 34.1408 30.0824 34.3816 30.1865C34.6258 30.2907 34.8667 30.3428 35.1043 30.3428C35.3908 30.3428 35.6382 30.2891 35.8465 30.1816C36.0548 30.0742 36.216 29.9147 36.3299 29.7031C36.4471 29.4948 36.5057 29.2376 36.5057 28.9316V24.8789L36.5887 23.7168ZM32.951 26.417V26.3145C32.951 25.9108 32.9982 25.5446 33.0926 25.2158C33.1902 24.8838 33.3286 24.599 33.5076 24.3613C33.6899 24.1237 33.9096 23.9414 34.1668 23.8145C34.424 23.6842 34.7137 23.6191 35.0359 23.6191C35.368 23.6191 35.6577 23.6777 35.9051 23.7949C36.1557 23.9089 36.3673 24.0765 36.5398 24.2979C36.7156 24.516 36.854 24.7796 36.9549 25.0889C37.0558 25.3981 37.1258 25.748 37.1648 26.1387V26.5879C37.129 26.9753 37.0591 27.3236 36.9549 27.6328C36.854 27.9421 36.7156 28.2057 36.5398 28.4238C36.3673 28.6419 36.1557 28.8096 35.9051 28.9268C35.6544 29.0407 35.3615 29.0977 35.0262 29.0977C34.7104 29.0977 34.424 29.0309 34.1668 28.8975C33.9129 28.764 33.6948 28.5768 33.5125 28.3359C33.3302 28.0951 33.1902 27.8118 33.0926 27.4863C32.9982 27.1576 32.951 26.8011 32.951 26.417ZM33.8543 26.3145V26.417C33.8543 26.6807 33.8803 26.9281 33.9324 27.1592C33.9878 27.3903 34.0708 27.5938 34.1814 27.7695C34.2954 27.9453 34.4402 28.0837 34.616 28.1846C34.7918 28.2822 35.0018 28.3311 35.2459 28.3311C35.5454 28.3311 35.7928 28.2676 35.9881 28.1406C36.1834 28.0137 36.338 27.846 36.452 27.6377C36.5691 27.4294 36.6603 27.2031 36.7254 26.959V25.7822C36.6896 25.6032 36.6342 25.4307 36.5594 25.2646C36.4878 25.0954 36.3934 24.9456 36.2762 24.8154C36.1622 24.682 36.0206 24.5762 35.8514 24.498C35.6821 24.4199 35.4835 24.3809 35.2557 24.3809C35.0083 24.3809 34.7951 24.4329 34.616 24.5371C34.4402 24.638 34.2954 24.778 34.1814 24.957C34.0708 25.1328 33.9878 25.3379 33.9324 25.5723C33.8803 25.8034 33.8543 26.0508 33.8543 26.3145ZM43.6734 23.7168V24.4102H40.817V23.7168H43.6734ZM41.7838 22.4326H42.6871V27.6914C42.6871 27.8704 42.7148 28.0055 42.7701 28.0967C42.8255 28.1878 42.8971 28.248 42.985 28.2773C43.0729 28.3066 43.1673 28.3213 43.2682 28.3213C43.343 28.3213 43.4212 28.3148 43.5025 28.3018C43.5872 28.2855 43.6507 28.2725 43.693 28.2627L43.6979 29C43.6262 29.0228 43.5318 29.0439 43.4146 29.0635C43.3007 29.0863 43.1624 29.0977 42.9996 29.0977C42.7783 29.0977 42.5748 29.0537 42.3893 28.9658C42.2037 28.8779 42.0556 28.7314 41.9449 28.5264C41.8375 28.318 41.7838 28.0381 41.7838 27.6865V22.4326ZM45.8145 23.7168V29H44.9062V23.7168H45.8145ZM44.8379 22.3154C44.8379 22.1689 44.8818 22.0452 44.9697 21.9443C45.0609 21.8434 45.1943 21.793 45.3701 21.793C45.5426 21.793 45.6745 21.8434 45.7656 21.9443C45.86 22.0452 45.9072 22.1689 45.9072 22.3154C45.9072 22.4554 45.86 22.5758 45.7656 22.6768C45.6745 22.7744 45.5426 22.8232 45.3701 22.8232C45.1943 22.8232 45.0609 22.7744 44.9697 22.6768C44.8818 22.5758 44.8379 22.4554 44.8379 22.3154ZM48.2631 24.7666V29H47.3549V23.7168H48.2143L48.2631 24.7666ZM48.0775 26.1582L47.6576 26.1436C47.6609 25.7822 47.7081 25.4486 47.7992 25.1426C47.8904 24.8333 48.0255 24.5648 48.2045 24.3369C48.3835 24.109 48.6065 23.9333 48.8734 23.8096C49.1404 23.6826 49.4496 23.6191 49.8012 23.6191C50.0486 23.6191 50.2764 23.6549 50.4848 23.7266C50.6931 23.7949 50.8738 23.904 51.0268 24.0537C51.1798 24.2035 51.2986 24.3955 51.3832 24.6299C51.4678 24.8643 51.5102 25.1475 51.5102 25.4795V29H50.6068V25.5234C50.6068 25.2467 50.5596 25.0254 50.4652 24.8594C50.3741 24.6934 50.2439 24.5729 50.0746 24.498C49.9053 24.4199 49.7068 24.3809 49.4789 24.3809C49.212 24.3809 48.989 24.4281 48.81 24.5225C48.6309 24.6169 48.4877 24.7471 48.3803 24.9131C48.2729 25.0791 48.1947 25.2695 48.1459 25.4844C48.1003 25.696 48.0775 25.9206 48.0775 26.1582ZM51.5004 25.6602L50.8949 25.8457C50.8982 25.556 50.9454 25.2777 51.0365 25.0107C51.1309 24.7438 51.266 24.5062 51.4418 24.2979C51.6208 24.0895 51.8406 23.9251 52.101 23.8047C52.3614 23.681 52.6592 23.6191 52.9945 23.6191C53.2777 23.6191 53.5284 23.6566 53.7465 23.7314C53.9678 23.8063 54.1534 23.9219 54.3031 24.0781C54.4561 24.2311 54.5717 24.4281 54.6498 24.6689C54.7279 24.9098 54.767 25.1963 54.767 25.5283V29H53.8588V25.5186C53.8588 25.2223 53.8116 24.9928 53.7172 24.8301C53.626 24.6641 53.4958 24.5485 53.3266 24.4834C53.1605 24.415 52.962 24.3809 52.7309 24.3809C52.5323 24.3809 52.3565 24.415 52.2035 24.4834C52.0505 24.5518 51.9219 24.6462 51.8178 24.7666C51.7136 24.8838 51.6339 25.0189 51.5785 25.1719C51.5264 25.3249 51.5004 25.4876 51.5004 25.6602ZM58.4266 29.0977C58.0587 29.0977 57.7251 29.0358 57.4256 28.9121C57.1294 28.7852 56.8738 28.6077 56.659 28.3799C56.4474 28.152 56.2846 27.8818 56.1707 27.5693C56.0568 27.2568 55.9998 26.915 55.9998 26.5439V26.3389C55.9998 25.9092 56.0633 25.5267 56.1902 25.1914C56.3172 24.8529 56.4897 24.5664 56.7078 24.332C56.9259 24.0977 57.1733 23.9202 57.45 23.7998C57.7267 23.6794 58.0132 23.6191 58.3094 23.6191C58.687 23.6191 59.0125 23.6842 59.2859 23.8145C59.5626 23.9447 59.7889 24.127 59.9646 24.3613C60.1404 24.5924 60.2706 24.8659 60.3553 25.1816C60.4399 25.4941 60.4822 25.8359 60.4822 26.207V26.6123H56.5369V25.875H59.5789V25.8066C59.5659 25.5723 59.5171 25.3444 59.4324 25.123C59.351 24.9017 59.2208 24.7194 59.0418 24.5762C58.8628 24.4329 58.6186 24.3613 58.3094 24.3613C58.1043 24.3613 57.9155 24.4053 57.743 24.4932C57.5704 24.5778 57.4223 24.7048 57.2986 24.874C57.1749 25.0433 57.0789 25.25 57.0105 25.4941C56.9422 25.7383 56.908 26.0199 56.908 26.3389V26.5439C56.908 26.7946 56.9422 27.0306 57.0105 27.252C57.0822 27.4701 57.1847 27.6621 57.3182 27.8281C57.4549 27.9941 57.6193 28.1243 57.8113 28.2188C58.0066 28.3132 58.228 28.3604 58.4754 28.3604C58.7944 28.3604 59.0646 28.2952 59.2859 28.165C59.5073 28.0348 59.701 27.8607 59.867 27.6426L60.4139 28.0771C60.2999 28.2497 60.1551 28.4141 59.9793 28.5703C59.8035 28.7266 59.587 28.8535 59.3299 28.9512C59.076 29.0488 58.7749 29.0977 58.4266 29.0977ZM62.6184 21.5V29H61.7102V21.5H62.6184ZM66.3609 29.0977C65.9931 29.0977 65.6594 29.0358 65.36 28.9121C65.0637 28.7852 64.8082 28.6077 64.5934 28.3799C64.3818 28.152 64.219 27.8818 64.1051 27.5693C63.9911 27.2568 63.9342 26.915 63.9342 26.5439V26.3389C63.9342 25.9092 63.9977 25.5267 64.1246 25.1914C64.2516 24.8529 64.4241 24.5664 64.6422 24.332C64.8603 24.0977 65.1077 23.9202 65.3844 23.7998C65.6611 23.6794 65.9475 23.6191 66.2438 23.6191C66.6214 23.6191 66.9469 23.6842 67.2203 23.8145C67.497 23.9447 67.7232 24.127 67.899 24.3613C68.0748 24.5924 68.205 24.8659 68.2896 25.1816C68.3743 25.4941 68.4166 25.8359 68.4166 26.207V26.6123H64.4713V25.875H67.5133V25.8066C67.5003 25.5723 67.4514 25.3444 67.3668 25.123C67.2854 24.9017 67.1552 24.7194 66.9762 24.5762C66.7971 24.4329 66.553 24.3613 66.2438 24.3613C66.0387 24.3613 65.8499 24.4053 65.6773 24.4932C65.5048 24.5778 65.3567 24.7048 65.233 24.874C65.1093 25.0433 65.0133 25.25 64.9449 25.4941C64.8766 25.7383 64.8424 26.0199 64.8424 26.3389V26.5439C64.8424 26.7946 64.8766 27.0306 64.9449 27.252C65.0165 27.4701 65.1191 27.6621 65.2525 27.8281C65.3893 27.9941 65.5536 28.1243 65.7457 28.2188C65.941 28.3132 66.1624 28.3604 66.4098 28.3604C66.7288 28.3604 66.999 28.2952 67.2203 28.165C67.4417 28.0348 67.6354 27.8607 67.8014 27.6426L68.3482 28.0771C68.2343 28.2497 68.0895 28.4141 67.9137 28.5703C67.7379 28.7266 67.5214 28.8535 67.2643 28.9512C67.0104 29.0488 66.7092 29.0977 66.3609 29.0977ZM72.6475 27.5986C72.6475 27.4684 72.6182 27.348 72.5596 27.2373C72.5042 27.1234 72.3887 27.0208 72.2129 26.9297C72.0404 26.8353 71.7799 26.7539 71.4316 26.6855C71.1387 26.6237 70.8734 26.5505 70.6357 26.4658C70.4014 26.3812 70.2012 26.2786 70.0352 26.1582C69.8724 26.0378 69.7471 25.8962 69.6592 25.7334C69.5713 25.5706 69.5273 25.3802 69.5273 25.1621C69.5273 24.9538 69.5729 24.7568 69.6641 24.5713C69.7585 24.3857 69.8903 24.2214 70.0596 24.0781C70.2321 23.9349 70.4388 23.8226 70.6797 23.7412C70.9206 23.6598 71.1891 23.6191 71.4854 23.6191C71.9085 23.6191 72.2699 23.694 72.5693 23.8438C72.8688 23.9935 73.0983 24.1937 73.2578 24.4443C73.4173 24.6917 73.4971 24.9668 73.4971 25.2695H72.5938C72.5938 25.123 72.5498 24.9814 72.4619 24.8447C72.3773 24.7048 72.252 24.5892 72.0859 24.498C71.9232 24.4069 71.723 24.3613 71.4854 24.3613C71.2347 24.3613 71.0312 24.4004 70.875 24.4785C70.722 24.5534 70.6097 24.6494 70.5381 24.7666C70.4697 24.8838 70.4355 25.0075 70.4355 25.1377C70.4355 25.2354 70.4518 25.3232 70.4844 25.4014C70.5202 25.4762 70.582 25.5462 70.6699 25.6113C70.7578 25.6732 70.8815 25.7318 71.041 25.7871C71.2005 25.8424 71.404 25.8978 71.6514 25.9531C72.0843 26.0508 72.4408 26.168 72.7207 26.3047C73.0007 26.4414 73.209 26.609 73.3457 26.8076C73.4824 27.0062 73.5508 27.2471 73.5508 27.5303C73.5508 27.7614 73.502 27.973 73.4043 28.165C73.3099 28.3571 73.1715 28.5231 72.9893 28.6631C72.8102 28.7998 72.5954 28.9072 72.3447 28.9854C72.0973 29.0602 71.819 29.0977 71.5098 29.0977C71.0443 29.0977 70.6504 29.0146 70.3281 28.8486C70.0059 28.6826 69.7617 28.4678 69.5957 28.2041C69.4297 27.9404 69.3467 27.6621 69.3467 27.3691H70.2549C70.2679 27.6165 70.3395 27.8135 70.4697 27.96C70.5999 28.1032 70.7594 28.2057 70.9482 28.2676C71.137 28.3262 71.3242 28.3555 71.5098 28.3555C71.7572 28.3555 71.9639 28.3229 72.1299 28.2578C72.2992 28.1927 72.4277 28.1032 72.5156 27.9893C72.6035 27.8753 72.6475 27.7451 72.6475 27.5986ZM77.9135 27.5986C77.9135 27.4684 77.8842 27.348 77.8256 27.2373C77.7702 27.1234 77.6547 27.0208 77.4789 26.9297C77.3064 26.8353 77.046 26.7539 76.6977 26.6855C76.4047 26.6237 76.1394 26.5505 75.9018 26.4658C75.6674 26.3812 75.4672 26.2786 75.3012 26.1582C75.1384 26.0378 75.0131 25.8962 74.9252 25.7334C74.8373 25.5706 74.7934 25.3802 74.7934 25.1621C74.7934 24.9538 74.8389 24.7568 74.9301 24.5713C75.0245 24.3857 75.1563 24.2214 75.3256 24.0781C75.4981 23.9349 75.7048 23.8226 75.9457 23.7412C76.1866 23.6598 76.4551 23.6191 76.7514 23.6191C77.1745 23.6191 77.5359 23.694 77.8354 23.8438C78.1348 23.9935 78.3643 24.1937 78.5238 24.4443C78.6833 24.6917 78.7631 24.9668 78.7631 25.2695H77.8598C77.8598 25.123 77.8158 24.9814 77.7279 24.8447C77.6433 24.7048 77.518 24.5892 77.352 24.498C77.1892 24.4069 76.989 24.3613 76.7514 24.3613C76.5007 24.3613 76.2973 24.4004 76.141 24.4785C75.988 24.5534 75.8757 24.6494 75.8041 24.7666C75.7357 24.8838 75.7016 25.0075 75.7016 25.1377C75.7016 25.2354 75.7178 25.3232 75.7504 25.4014C75.7862 25.4762 75.848 25.5462 75.9359 25.6113C76.0238 25.6732 76.1475 25.7318 76.307 25.7871C76.4665 25.8424 76.67 25.8978 76.9174 25.9531C77.3503 26.0508 77.7068 26.168 77.9867 26.3047C78.2667 26.4414 78.475 26.609 78.6117 26.8076C78.7484 27.0062 78.8168 27.2471 78.8168 27.5303C78.8168 27.7614 78.768 27.973 78.6703 28.165C78.5759 28.3571 78.4376 28.5231 78.2553 28.6631C78.0762 28.7998 77.8614 28.9072 77.6107 28.9854C77.3633 29.0602 77.085 29.0977 76.7758 29.0977C76.3103 29.0977 75.9164 29.0146 75.5941 28.8486C75.2719 28.6826 75.0277 28.4678 74.8617 28.2041C74.6957 27.9404 74.6127 27.6621 74.6127 27.3691H75.5209C75.5339 27.6165 75.6055 27.8135 75.7357 27.96C75.8659 28.1032 76.0255 28.2057 76.2143 28.2676C76.4031 28.3262 76.5902 28.3555 76.7758 28.3555C77.0232 28.3555 77.2299 28.3229 77.3959 28.2578C77.5652 28.1927 77.6937 28.1032 77.7816 27.9893C77.8695 27.8753 77.9135 27.7451 77.9135 27.5986ZM84.8762 29.0977C84.5083 29.0977 84.1747 29.0358 83.8752 28.9121C83.579 28.7852 83.3234 28.6077 83.1086 28.3799C82.897 28.152 82.7342 27.8818 82.6203 27.5693C82.5064 27.2568 82.4494 26.915 82.4494 26.5439V26.3389C82.4494 25.9092 82.5129 25.5267 82.6398 25.1914C82.7668 24.8529 82.9393 24.5664 83.1574 24.332C83.3755 24.0977 83.6229 23.9202 83.8996 23.7998C84.1763 23.6794 84.4628 23.6191 84.759 23.6191C85.1366 23.6191 85.4621 23.6842 85.7355 23.8145C86.0122 23.9447 86.2385 24.127 86.4143 24.3613C86.59 24.5924 86.7203 24.8659 86.8049 25.1816C86.8895 25.4941 86.9318 25.8359 86.9318 26.207V26.6123H82.9865V25.875H86.0285V25.8066C86.0155 25.5723 85.9667 25.3444 85.882 25.123C85.8007 24.9017 85.6704 24.7194 85.4914 24.5762C85.3124 24.4329 85.0682 24.3613 84.759 24.3613C84.5539 24.3613 84.3651 24.4053 84.1926 24.4932C84.0201 24.5778 83.8719 24.7048 83.7482 24.874C83.6245 25.0433 83.5285 25.25 83.4602 25.4941C83.3918 25.7383 83.3576 26.0199 83.3576 26.3389V26.5439C83.3576 26.7946 83.3918 27.0306 83.4602 27.252C83.5318 27.4701 83.6343 27.6621 83.7678 27.8281C83.9045 27.9941 84.0689 28.1243 84.2609 28.2188C84.4563 28.3132 84.6776 28.3604 84.925 28.3604C85.244 28.3604 85.5142 28.2952 85.7355 28.165C85.9569 28.0348 86.1506 27.8607 86.3166 27.6426L86.8635 28.0771C86.7495 28.2497 86.6047 28.4141 86.4289 28.5703C86.2531 28.7266 86.0367 28.8535 85.7795 28.9512C85.5256 29.0488 85.2245 29.0977 84.8762 29.0977ZM88.6969 23.7168L89.8541 25.6406L91.026 23.7168H92.0855L90.357 26.3242L92.1393 29H91.0943L89.8736 27.0176L88.6529 29H87.6031L89.3805 26.3242L87.6568 23.7168H88.6969ZM94.0508 24.7324V31.0312H93.1426V23.7168H93.9727L94.0508 24.7324ZM97.6104 26.3145V26.417C97.6104 26.8011 97.5648 27.1576 97.4736 27.4863C97.3825 27.8118 97.249 28.0951 97.0732 28.3359C96.9007 28.5768 96.6875 28.764 96.4336 28.8975C96.1797 29.0309 95.8883 29.0977 95.5596 29.0977C95.2243 29.0977 94.9281 29.0423 94.6709 28.9316C94.4137 28.821 94.1956 28.6598 94.0166 28.4482C93.8376 28.2367 93.6943 27.9827 93.5869 27.6865C93.4827 27.3903 93.4111 27.0566 93.3721 26.6855V26.1387C93.4111 25.748 93.4844 25.3981 93.5918 25.0889C93.6992 24.7796 93.8408 24.516 94.0166 24.2979C94.1956 24.0765 94.4121 23.9089 94.666 23.7949C94.9199 23.6777 95.2129 23.6191 95.5449 23.6191C95.877 23.6191 96.1715 23.6842 96.4287 23.8145C96.6859 23.9414 96.9023 24.1237 97.0781 24.3613C97.2539 24.599 97.3857 24.8838 97.4736 25.2158C97.5648 25.5446 97.6104 25.9108 97.6104 26.3145ZM96.7021 26.417V26.3145C96.7021 26.0508 96.6745 25.8034 96.6191 25.5723C96.5638 25.3379 96.4775 25.1328 96.3604 24.957C96.2464 24.778 96.0999 24.638 95.9209 24.5371C95.7419 24.4329 95.5286 24.3809 95.2812 24.3809C95.0534 24.3809 94.8548 24.4199 94.6855 24.498C94.5195 24.5762 94.3779 24.682 94.2607 24.8154C94.1436 24.9456 94.0475 25.0954 93.9727 25.2646C93.901 25.4307 93.8473 25.6032 93.8115 25.7822V27.0469C93.8766 27.2747 93.9678 27.4896 94.085 27.6914C94.2021 27.89 94.3584 28.0511 94.5537 28.1748C94.749 28.2952 94.9948 28.3555 95.291 28.3555C95.5352 28.3555 95.7451 28.305 95.9209 28.2041C96.0999 28.0999 96.2464 27.9583 96.3604 27.7793C96.4775 27.6003 96.5638 27.3952 96.6191 27.1641C96.6745 26.9297 96.7021 26.6807 96.7021 26.417ZM101.055 29.0977C100.687 29.0977 100.354 29.0358 100.054 28.9121C99.7579 28.7852 99.5023 28.6077 99.2875 28.3799C99.0759 28.152 98.9131 27.8818 98.7992 27.5693C98.6853 27.2568 98.6283 26.915 98.6283 26.5439V26.3389C98.6283 25.9092 98.6918 25.5267 98.8187 25.1914C98.9457 24.8529 99.1182 24.5664 99.3363 24.332C99.5544 24.0977 99.8018 23.9202 100.079 23.7998C100.355 23.6794 100.642 23.6191 100.938 23.6191C101.315 23.6191 101.641 23.6842 101.914 23.8145C102.191 23.9447 102.417 24.127 102.593 24.3613C102.769 24.5924 102.899 24.8659 102.984 25.1816C103.068 25.4941 103.111 25.8359 103.111 26.207V26.6123H99.1654V25.875H102.207V25.8066C102.194 25.5723 102.146 25.3444 102.061 25.123C101.98 24.9017 101.849 24.7194 101.67 24.5762C101.491 24.4329 101.247 24.3613 100.938 24.3613C100.733 24.3613 100.544 24.4053 100.371 24.4932C100.199 24.5778 100.051 24.7048 99.9271 24.874C99.8034 25.0433 99.7074 25.25 99.6391 25.4941C99.5707 25.7383 99.5365 26.0199 99.5365 26.3389V26.5439C99.5365 26.7946 99.5707 27.0306 99.6391 27.252C99.7107 27.4701 99.8132 27.6621 99.9467 27.8281C100.083 27.9941 100.248 28.1243 100.44 28.2188C100.635 28.3132 100.857 28.3604 101.104 28.3604C101.423 28.3604 101.693 28.2952 101.914 28.165C102.136 28.0348 102.329 27.8607 102.496 27.6426L103.042 28.0771C102.928 28.2497 102.784 28.4141 102.608 28.5703C102.432 28.7266 102.216 28.8535 101.958 28.9512C101.704 29.0488 101.403 29.0977 101.055 29.0977ZM105.169 24.5469V29H104.265V23.7168H105.144L105.169 24.5469ZM106.819 23.6875L106.814 24.5273C106.739 24.5111 106.668 24.5013 106.599 24.498C106.534 24.4915 106.459 24.4883 106.375 24.4883C106.166 24.4883 105.983 24.5208 105.823 24.5859C105.664 24.651 105.528 24.7422 105.418 24.8594C105.307 24.9766 105.219 25.1165 105.154 25.2793C105.092 25.4388 105.052 25.6146 105.032 25.8066L104.778 25.9531C104.778 25.6341 104.809 25.3346 104.871 25.0547C104.936 24.7747 105.035 24.5273 105.169 24.3125C105.302 24.0944 105.471 23.9251 105.677 23.8047C105.885 23.681 106.132 23.6191 106.419 23.6191C106.484 23.6191 106.559 23.6273 106.643 23.6436C106.728 23.6566 106.787 23.6712 106.819 23.6875ZM108.736 23.7168V29H107.827V23.7168H108.736ZM107.759 22.3154C107.759 22.1689 107.803 22.0452 107.891 21.9443C107.982 21.8434 108.115 21.793 108.291 21.793C108.464 21.793 108.596 21.8434 108.687 21.9443C108.781 22.0452 108.828 22.1689 108.828 22.3154C108.828 22.4554 108.781 22.5758 108.687 22.6768C108.596 22.7744 108.464 22.8232 108.291 22.8232C108.115 22.8232 107.982 22.7744 107.891 22.6768C107.803 22.5758 107.759 22.4554 107.759 22.3154ZM112.478 29.0977C112.11 29.0977 111.777 29.0358 111.477 28.9121C111.181 28.7852 110.925 28.6077 110.711 28.3799C110.499 28.152 110.336 27.8818 110.222 27.5693C110.108 27.2568 110.051 26.915 110.051 26.5439V26.3389C110.051 25.9092 110.115 25.5267 110.242 25.1914C110.369 24.8529 110.541 24.5664 110.759 24.332C110.977 24.0977 111.225 23.9202 111.502 23.7998C111.778 23.6794 112.065 23.6191 112.361 23.6191C112.739 23.6191 113.064 23.6842 113.338 23.8145C113.614 23.9447 113.84 24.127 114.016 24.3613C114.192 24.5924 114.322 24.8659 114.407 25.1816C114.491 25.4941 114.534 25.8359 114.534 26.207V26.6123H110.588V25.875H113.63V25.8066C113.617 25.5723 113.569 25.3444 113.484 25.123C113.403 24.9017 113.272 24.7194 113.093 24.5762C112.914 24.4329 112.67 24.3613 112.361 24.3613C112.156 24.3613 111.967 24.4053 111.795 24.4932C111.622 24.5778 111.474 24.7048 111.35 24.874C111.226 25.0433 111.13 25.25 111.062 25.4941C110.994 25.7383 110.96 26.0199 110.96 26.3389V26.5439C110.96 26.7946 110.994 27.0306 111.062 27.252C111.134 27.4701 111.236 27.6621 111.37 27.8281C111.506 27.9941 111.671 28.1243 111.863 28.2188C112.058 28.3132 112.28 28.3604 112.527 28.3604C112.846 28.3604 113.116 28.2952 113.338 28.165C113.559 28.0348 113.753 27.8607 113.919 27.6426L114.465 28.0771C114.351 28.2497 114.207 28.4141 114.031 28.5703C113.855 28.7266 113.639 28.8535 113.381 28.9512C113.128 29.0488 112.826 29.0977 112.478 29.0977ZM116.592 24.8447V29H115.688V23.7168H116.543L116.592 24.8447ZM116.377 26.1582L116.001 26.1436C116.004 25.7822 116.058 25.4486 116.162 25.1426C116.266 24.8333 116.413 24.5648 116.602 24.3369C116.79 24.109 117.015 23.9333 117.275 23.8096C117.539 23.6826 117.83 23.6191 118.149 23.6191C118.41 23.6191 118.644 23.6549 118.853 23.7266C119.061 23.7949 119.238 23.9056 119.385 24.0586C119.535 24.2116 119.648 24.4102 119.727 24.6543C119.805 24.8952 119.844 25.1898 119.844 25.5381V29H118.936V25.5283C118.936 25.2516 118.895 25.0303 118.813 24.8643C118.732 24.695 118.613 24.5729 118.457 24.498C118.301 24.4199 118.109 24.3809 117.881 24.3809C117.656 24.3809 117.451 24.4281 117.266 24.5225C117.083 24.6169 116.925 24.7471 116.792 24.9131C116.662 25.0791 116.559 25.2695 116.484 25.4844C116.413 25.696 116.377 25.9206 116.377 26.1582ZM123.43 28.3555C123.645 28.3555 123.843 28.3115 124.026 28.2236C124.208 28.1357 124.358 28.0153 124.475 27.8623C124.592 27.7061 124.659 27.5286 124.675 27.3301H125.535C125.518 27.6426 125.412 27.9339 125.217 28.2041C125.025 28.471 124.773 28.6875 124.46 28.8535C124.148 29.0163 123.804 29.0977 123.43 29.0977C123.033 29.0977 122.686 29.0277 122.39 28.8877C122.097 28.7477 121.853 28.5557 121.658 28.3115C121.466 28.0674 121.321 27.7874 121.223 27.4717C121.129 27.1527 121.081 26.8158 121.081 26.4609V26.2559C121.081 25.901 121.129 25.5658 121.223 25.25C121.321 24.931 121.466 24.6494 121.658 24.4053C121.853 24.1611 122.097 23.9691 122.39 23.8291C122.686 23.6891 123.033 23.6191 123.43 23.6191C123.843 23.6191 124.205 23.7038 124.514 23.873C124.823 24.0391 125.066 24.2669 125.242 24.5566C125.421 24.8431 125.518 25.1686 125.535 25.5332H124.675C124.659 25.3151 124.597 25.1182 124.49 24.9424C124.385 24.7666 124.242 24.6266 124.06 24.5225C123.881 24.415 123.671 24.3613 123.43 24.3613C123.153 24.3613 122.921 24.4167 122.732 24.5273C122.546 24.6348 122.398 24.7812 122.287 24.9668C122.18 25.1491 122.102 25.3525 122.053 25.5771C122.008 25.7985 121.985 26.0247 121.985 26.2559V26.4609C121.985 26.6921 122.008 26.9199 122.053 27.1445C122.099 27.3691 122.175 27.5726 122.283 27.7549C122.393 27.9372 122.541 28.0837 122.727 28.1943C122.916 28.3018 123.15 28.3555 123.43 28.3555ZM128.843 29.0977C128.475 29.0977 128.141 29.0358 127.842 28.9121C127.545 28.7852 127.29 28.6077 127.075 28.3799C126.863 28.152 126.701 27.8818 126.587 27.5693C126.473 27.2568 126.416 26.915 126.416 26.5439V26.3389C126.416 25.9092 126.479 25.5267 126.606 25.1914C126.733 24.8529 126.906 24.5664 127.124 24.332C127.342 24.0977 127.589 23.9202 127.866 23.7998C128.143 23.6794 128.429 23.6191 128.725 23.6191C129.103 23.6191 129.429 23.6842 129.702 23.8145C129.979 23.9447 130.205 24.127 130.381 24.3613C130.556 24.5924 130.687 24.8659 130.771 25.1816C130.856 25.4941 130.898 25.8359 130.898 26.207V26.6123H126.953V25.875H129.995V25.8066C129.982 25.5723 129.933 25.3444 129.848 25.123C129.767 24.9017 129.637 24.7194 129.458 24.5762C129.279 24.4329 129.035 24.3613 128.725 24.3613C128.52 24.3613 128.332 24.4053 128.159 24.4932C127.986 24.5778 127.838 24.7048 127.715 24.874C127.591 25.0433 127.495 25.25 127.427 25.4941C127.358 25.7383 127.324 26.0199 127.324 26.3389V26.5439C127.324 26.7946 127.358 27.0306 127.427 27.252C127.498 27.4701 127.601 27.6621 127.734 27.8281C127.871 27.9941 128.035 28.1243 128.227 28.2188C128.423 28.3132 128.644 28.3604 128.891 28.3604C129.21 28.3604 129.481 28.2952 129.702 28.165C129.923 28.0348 130.117 27.8607 130.283 27.6426L130.83 28.0771C130.716 28.2497 130.571 28.4141 130.395 28.5703C130.22 28.7266 130.003 28.8535 129.746 28.9512C129.492 29.0488 129.191 29.0977 128.843 29.0977Z" fill="#525252"/>
</svg>
