<svg width="171" height="52" viewBox="0 0 171 52" fill="none" xmlns="http://www.w3.org/2000/svg">
<path d="M48.9676 36.644C48.9676 37.2086 48.7433 37.7501 48.344 38.1494C47.9448 38.5487 47.4032 38.773 46.8386 38.773C46.2739 38.773 45.7324 38.5487 45.3331 38.1494C44.9339 37.7501 44.7095 37.2086 44.7095 36.644C44.7095 31.5621 42.6908 26.6883 39.0973 23.0949C35.5039 19.5014 30.6301 17.4827 25.5483 17.4827C20.4664 17.4827 15.5926 19.5014 11.9992 23.0949C8.40574 26.6883 6.38697 31.5621 6.38697 36.644C6.38697 37.2086 6.16266 37.7501 5.76339 38.1494C5.36412 38.5487 4.82259 38.773 4.25794 38.773C3.69328 38.773 3.15176 38.5487 2.75249 38.1494C2.35321 37.7501 2.12891 37.2086 2.12891 36.644C2.12891 30.4328 4.5963 24.476 8.98828 20.084C13.3803 15.692 19.3371 13.2246 25.5483 13.2246C31.7595 13.2246 37.7163 15.692 42.1082 20.084C46.5002 24.476 48.9676 30.4328 48.9676 36.644ZM25.5483 21.7407C21.5971 21.7452 17.809 23.3169 15.0151 26.1108C12.2211 28.9047 10.6495 32.6928 10.645 36.644C10.645 37.2086 10.8693 37.7501 11.2686 38.1494C11.6679 38.5487 12.2094 38.773 12.7741 38.773C13.3387 38.773 13.8802 38.5487 14.2795 38.1494C14.6788 37.7501 14.9031 37.2086 14.9031 36.644C14.9031 33.8207 16.0246 31.1131 18.021 29.1167C20.0173 27.1203 22.725 25.9988 25.5483 25.9988C28.3715 25.9988 31.0792 27.1203 33.0755 29.1167C35.0719 31.1131 36.1934 33.8207 36.1934 36.644C36.1934 37.2086 36.4177 37.7501 36.817 38.1494C37.2163 38.5487 37.7578 38.773 38.3225 38.773C38.8871 38.773 39.4286 38.5487 39.8279 38.1494C40.2272 37.7501 40.4515 37.2086 40.4515 36.644C40.4464 32.6929 38.8746 28.9052 36.0808 26.1114C33.287 23.3176 29.4993 21.7458 25.5483 21.7407ZM25.5483 30.2569C23.8543 30.2569 22.2297 30.9298 21.0319 32.1276C19.8341 33.3254 19.1612 34.95 19.1612 36.644C19.1612 37.2086 19.3855 37.7501 19.7847 38.1494C20.184 38.5487 20.7255 38.773 21.2902 38.773C21.8549 38.773 22.3964 38.5487 22.7956 38.1494C23.1949 37.7501 23.4192 37.2086 23.4192 36.644C23.4192 36.0793 23.6435 35.5378 24.0428 35.1385C24.4421 34.7392 24.9836 34.5149 25.5483 34.5149C26.1129 34.5149 26.6544 34.7392 27.0537 35.1385C27.453 35.5378 27.6773 36.0793 27.6773 36.644C27.6773 37.2086 27.9016 37.7501 28.3009 38.1494C28.7001 38.5487 29.2417 38.773 29.8063 38.773C30.371 38.773 30.9125 38.5487 31.3118 38.1494C31.711 37.7501 31.9354 37.2086 31.9354 36.644C31.9354 34.95 31.2624 33.3254 30.0646 32.1276C28.8668 30.9298 27.2422 30.2569 25.5483 30.2569Z" fill="#525252"/>
<path d="M62.0595 38.8387V23.9975H68.5186C69.1875 23.9975 69.8006 24.1368 70.358 24.4155C70.9294 24.6942 71.4171 25.0635 71.8213 25.5234C72.2254 25.9693 72.5389 26.4849 72.7619 27.0702C72.9988 27.6416 73.1173 28.2269 73.1173 28.8261C73.1173 29.3278 73.0476 29.8086 72.9082 30.2684C72.7689 30.7283 72.5738 31.1533 72.3229 31.5435C72.0721 31.9337 71.7655 32.2751 71.4032 32.5678C71.0409 32.8465 70.6437 33.0555 70.2117 33.1949L73.7444 38.8387H71.0897L67.8288 33.6756H64.4006V38.8387H62.0595ZM64.4006 31.6062H68.4977C68.8321 31.6062 69.1317 31.5366 69.3965 31.3972C69.6752 31.2439 69.9121 31.0418 70.1072 30.791C70.3023 30.5262 70.4556 30.2266 70.5671 29.8922C70.6786 29.5577 70.7343 29.2024 70.7343 28.8261C70.7343 28.4498 70.6646 28.0945 70.5253 27.76C70.3999 27.4256 70.2257 27.1329 70.0027 26.8821C69.7937 26.6313 69.5428 26.4362 69.2502 26.2968C68.9715 26.1435 68.6788 26.0669 68.3722 26.0669H64.4006V31.6062ZM78.4105 39.0478C77.881 39.0478 77.3863 38.9642 76.9264 38.7969C76.4805 38.6158 76.0903 38.3719 75.7558 38.0653C75.4353 37.7587 75.1775 37.3964 74.9824 36.9784C74.8012 36.5603 74.7107 36.1074 74.7107 35.6196C74.7107 35.104 74.8221 34.6372 75.0451 34.2191C75.2681 33.8011 75.5816 33.4387 75.9857 33.1322C76.4038 32.8256 76.8916 32.5887 77.449 32.4215C78.0203 32.2542 78.6474 32.1706 79.3303 32.1706C79.8459 32.1706 80.3545 32.2194 80.8562 32.3169C81.3579 32.4006 81.8108 32.519 82.2149 32.6723V31.9198C82.2149 31.1115 81.985 30.4844 81.5251 30.0385C81.0652 29.5786 80.4033 29.3487 79.5393 29.3487C78.954 29.3487 78.3757 29.4602 77.8043 29.6831C77.2469 29.8922 76.6686 30.1987 76.0694 30.6029L75.3587 29.1396C76.7661 28.192 78.2294 27.7182 79.7483 27.7182C81.2534 27.7182 82.4239 28.1015 83.2601 28.8679C84.0962 29.6344 84.5143 30.7353 84.5143 32.1706V36.1213C84.5143 36.3861 84.563 36.5742 84.6606 36.6857C84.7581 36.7972 84.9254 36.8599 85.1623 36.8738V38.8387C84.9393 38.8806 84.7303 38.9084 84.5352 38.9224C84.354 38.9363 84.1868 38.9433 84.0335 38.9433C83.5876 38.9154 83.2461 38.7969 83.0092 38.5879C82.7863 38.3789 82.6469 38.1002 82.5912 37.7518L82.5285 37.062C82.0407 37.703 81.4345 38.1977 80.7099 38.5461C79.9992 38.8806 79.2327 39.0478 78.4105 39.0478ZM79.0376 37.3546C79.595 37.3546 80.1176 37.2571 80.6054 37.062C81.107 36.8529 81.4972 36.5673 81.7759 36.2049C82.0686 35.9541 82.2149 35.6893 82.2149 35.4106V33.9683C81.8247 33.815 81.4067 33.6966 80.9607 33.6129C80.5287 33.5293 80.1037 33.4875 79.6856 33.4875C78.8634 33.4875 78.1876 33.6687 77.658 34.031C77.1424 34.3794 76.8846 34.8462 76.8846 35.4315C76.8846 35.975 77.0867 36.4349 77.4908 36.8111C77.8949 37.1735 78.4105 37.3546 79.0376 37.3546ZM87.3233 38.8387V27.9064H89.6227V38.8387H87.3233ZM87.3233 26.1087V23.5794H89.6227V26.1087H87.3233ZM102.149 38.8387H99.8497V32.7141C99.8497 31.6829 99.6825 30.9373 99.348 30.4775C99.0136 30.0036 98.5328 29.7667 97.9057 29.7667C97.5713 29.7667 97.2298 29.8295 96.8815 29.9549C96.547 30.0803 96.2335 30.2615 95.9408 30.4984C95.6482 30.7213 95.3834 30.9931 95.1465 31.3136C94.9235 31.6202 94.7493 31.9616 94.6239 32.3378V38.8387H92.3246V27.9064H94.4149V30.1012C94.8329 29.3626 95.4391 28.7843 96.2335 28.3662C97.0278 27.9342 97.9057 27.7182 98.8673 27.7182C99.5222 27.7182 100.059 27.8367 100.477 28.0736C100.909 28.3105 101.243 28.638 101.48 29.056C101.731 29.4602 101.905 29.934 102.003 30.4775C102.1 31.007 102.149 31.5714 102.149 32.1706V38.8387ZM110.651 39.0478C109.801 39.0478 109.035 38.8527 108.352 38.4625C107.683 38.0584 107.154 37.5218 106.763 36.8529V38.8387H104.736V23.5794H107.035V29.9758C107.467 29.279 108.004 28.7286 108.645 28.3244C109.3 27.9203 110.066 27.7182 110.944 27.7182C111.669 27.7182 112.331 27.8785 112.93 28.199C113.529 28.5056 114.038 28.9236 114.456 29.4532C114.888 29.9688 115.215 30.575 115.438 31.2718C115.675 31.9546 115.794 32.6723 115.794 33.4248C115.794 34.2052 115.661 34.9368 115.396 35.6196C115.132 36.3025 114.769 36.9017 114.31 37.4173C113.85 37.919 113.306 38.3162 112.679 38.6088C112.052 38.9015 111.376 39.0478 110.651 39.0478ZM110.045 37.0829C110.547 37.0829 111.007 36.9853 111.425 36.7902C111.843 36.5812 112.198 36.3095 112.491 35.975C112.798 35.6406 113.034 35.2573 113.202 34.8253C113.369 34.3794 113.452 33.9126 113.452 33.4248C113.452 32.9371 113.369 32.4702 113.202 32.0243C113.048 31.5644 112.825 31.1673 112.533 30.8328C112.254 30.4844 111.913 30.2057 111.508 29.9967C111.118 29.7876 110.686 29.6831 110.212 29.6831C109.85 29.6831 109.509 29.7458 109.188 29.8713C108.882 29.9967 108.589 30.1709 108.31 30.3938C108.046 30.6029 107.802 30.8537 107.579 31.1464C107.37 31.4251 107.188 31.7247 107.035 32.0452V34.9298C107.119 35.2504 107.265 35.543 107.474 35.8078C107.683 36.0586 107.927 36.2816 108.206 36.4767C108.498 36.6718 108.805 36.8251 109.126 36.9366C109.446 37.0341 109.753 37.0829 110.045 37.0829ZM122.795 39.0478C121.931 39.0478 121.151 38.8945 120.454 38.5879C119.771 38.2813 119.186 37.8702 118.698 37.3546C118.21 36.839 117.834 36.2398 117.569 35.5569C117.305 34.8602 117.172 34.1355 117.172 33.383C117.172 32.6305 117.305 31.9128 117.569 31.23C117.834 30.5332 118.21 29.927 118.698 29.4114C119.2 28.8958 119.792 28.4847 120.475 28.1781C121.172 27.8715 121.945 27.7182 122.795 27.7182C123.645 27.7182 124.412 27.8715 125.095 28.1781C125.791 28.4847 126.384 28.8958 126.871 29.4114C127.373 29.927 127.756 30.5332 128.021 31.23C128.286 31.9128 128.418 32.6305 128.418 33.383C128.418 34.1355 128.286 34.8602 128.021 35.5569C127.756 36.2398 127.373 36.839 126.871 37.3546C126.384 37.8702 125.791 38.2813 125.095 38.5879C124.412 38.8945 123.645 39.0478 122.795 39.0478ZM119.534 33.4039C119.534 33.9335 119.618 34.4212 119.785 34.8671C119.952 35.3131 120.182 35.7033 120.475 36.0377C120.768 36.3582 121.109 36.616 121.499 36.8111C121.903 36.9923 122.335 37.0829 122.795 37.0829C123.255 37.0829 123.68 36.9923 124.07 36.8111C124.474 36.616 124.823 36.3513 125.116 36.0168C125.408 35.6824 125.638 35.2922 125.805 34.8462C125.973 34.4003 126.056 33.9126 126.056 33.383C126.056 32.8674 125.973 32.3866 125.805 31.9407C125.638 31.4808 125.408 31.0836 125.116 30.7492C124.823 30.4147 124.474 30.1569 124.07 29.9758C123.68 29.7807 123.255 29.6831 122.795 29.6831C122.349 29.6831 121.924 29.7807 121.52 29.9758C121.13 30.1709 120.789 30.4356 120.496 30.7701C120.203 31.1046 119.966 31.5017 119.785 31.9616C119.618 32.4075 119.534 32.8883 119.534 33.4039ZM143.721 27.9064H145.915L141.296 38.8387H139.414L137.366 33.7593L135.338 38.8387H133.436L128.837 27.9064H131.011L134.544 36.623L136.133 32.5678L134.23 27.9273H136.112L137.366 31.3554L138.62 27.9273H140.501L138.62 32.5678L140.209 36.623L143.721 27.9064ZM150.107 38.8387L156.085 23.9975H158.009L163.966 38.8387H161.478L159.89 34.8044H154.162L152.616 38.8387H150.107ZM157.047 26.6104L154.58 33.0695H159.43L157.047 26.6104ZM165.759 38.8387V24.0184H168.1V38.8387H165.759Z" fill="#525252"/>
</svg>
