<svg width="200" height="34" viewBox="0 0 200 34" fill="none" xmlns="http://www.w3.org/2000/svg">
<path d="M9.91715 32.5832C9.54143 32.5832 9.18109 32.4339 8.91542 32.1682C8.64974 31.9026 8.50048 31.5422 8.50048 31.1665C8.50048 30.7908 8.64974 30.4304 8.91542 30.1648C9.18109 29.8991 9.54143 29.7498 9.91715 29.7498C13.2987 29.7498 16.5417 28.4065 18.9328 26.0154C21.3239 23.6244 22.6672 20.3813 22.6672 16.9998C22.6672 13.6183 21.3239 10.3753 18.9328 7.98423C16.5417 5.59314 13.2987 4.24984 9.91715 4.24984C9.54143 4.24984 9.18109 4.10058 8.91542 3.8349C8.64974 3.56923 8.50049 3.20889 8.50049 2.83317C8.50049 2.45745 8.64974 2.09711 8.91542 1.83144C9.18109 1.56576 9.54143 1.4165 9.91715 1.4165C14.0501 1.4165 18.0138 3.05831 20.9362 5.98076C23.8587 8.9032 25.5005 12.8669 25.5005 16.9998C25.5005 21.1328 23.8587 25.0965 20.9362 28.0189C18.0138 30.9414 14.0501 32.5832 9.91715 32.5832V32.5832ZM19.8338 16.9998C19.8308 14.3707 18.7851 11.8501 16.926 9.99101C15.0669 8.13192 12.5463 7.08617 9.91715 7.08317C9.54143 7.08317 9.18109 7.23243 8.91542 7.4981C8.64974 7.76378 8.50049 8.12411 8.50049 8.49984C8.50049 8.87556 8.64974 9.23589 8.91542 9.50157C9.18109 9.76725 9.54143 9.9165 9.91715 9.9165C11.7958 9.9165 13.5974 10.6628 14.9258 11.9912C16.2542 13.3195 17.0005 15.1212 17.0005 16.9998C17.0005 18.8785 16.2542 20.6801 14.9258 22.0085C13.5974 23.3369 11.7958 24.0832 9.91715 24.0832C9.54143 24.0832 9.18109 24.2324 8.91542 24.4981C8.64974 24.7638 8.50048 25.1241 8.50048 25.4998C8.50048 25.8756 8.64974 26.2359 8.91542 26.5016C9.18109 26.7672 9.54143 26.9165 9.91715 26.9165C12.5462 26.9131 15.0666 25.8673 16.9256 24.0083C18.7846 22.1492 19.8304 19.6289 19.8338 16.9998V16.9998ZM14.1672 16.9998C14.1672 15.8727 13.7194 14.7917 12.9224 13.9946C12.1253 13.1976 11.0443 12.7498 9.91715 12.7498C9.54143 12.7498 9.18109 12.8991 8.91542 13.1648C8.64974 13.4304 8.50049 13.7908 8.50049 14.1665C8.50049 14.5422 8.64974 14.9026 8.91542 15.1682C9.18109 15.4339 9.54143 15.5832 9.91715 15.5832C10.2929 15.5832 10.6532 15.7324 10.9189 15.9981C11.1846 16.2638 11.3338 16.6241 11.3338 16.9998C11.3338 17.3756 11.1846 17.7359 10.9189 18.0016C10.6532 18.2672 10.2929 18.4165 9.91715 18.4165C9.54143 18.4165 9.18109 18.5658 8.91542 18.8314C8.64974 19.0971 8.50049 19.4574 8.50049 19.8332C8.50049 20.2089 8.64974 20.5692 8.91542 20.8349C9.18109 21.1006 9.54143 21.2498 9.91715 21.2498C11.0443 21.2498 12.1253 20.8021 12.9224 20.005C13.7194 19.208 14.1672 18.127 14.1672 16.9998Z" fill="#1324BB"/>
<path d="M35.1237 25.6837C33.4567 25.6837 32.2659 25.3027 31.5514 24.5406C30.8437 23.7785 30.4899 22.6013 30.4899 21.0091V19.4168H34.0418V20.8764C34.0418 21.9243 34.3276 22.4482 34.8992 22.4482C35.1646 22.4482 35.3721 22.3461 35.5218 22.142C35.6783 21.9379 35.7566 21.6691 35.7566 21.3357C35.7566 20.9002 35.6953 20.5328 35.5728 20.2334C35.4572 19.934 35.2768 19.6516 35.0319 19.3862C34.7937 19.114 34.3991 18.7398 33.8479 18.2635L32.3271 16.9468C31.1023 15.8921 30.4899 14.7014 30.4899 13.3745C30.4899 11.932 30.8574 10.8603 31.5922 10.1594C32.3339 9.45174 33.3512 9.09791 34.644 9.09791C34.678 9.09791 34.7087 9.09791 34.7359 9.09791C34.7631 9.09791 34.9434 9.09791 35.2768 9.09791C35.6103 9.09791 36.0389 9.17616 36.5629 9.33266C37.0868 9.48236 37.5529 9.73753 37.9612 10.0982C38.3695 10.452 38.6757 10.9487 38.8798 11.5883C39.0839 12.2211 39.186 12.9969 39.186 13.9154H35.5422L35.5218 12.9356C35.515 12.7519 35.4367 12.5886 35.287 12.4457C35.1373 12.3028 34.9706 12.2314 34.7869 12.2314C34.5488 12.2314 34.3446 12.3062 34.1745 12.4559C34.0112 12.5988 33.9296 12.7859 33.9296 13.0173C33.9296 13.48 34.2664 13.9835 34.94 14.5278L37.114 16.2834C37.4679 16.5692 37.7741 16.8618 38.0326 17.1612C38.298 17.4538 38.5055 17.7463 38.6552 18.0389C38.8117 18.3247 38.9376 18.5867 39.0329 18.8248C39.1281 19.0562 39.1928 19.3114 39.2268 19.5903C39.2676 19.8625 39.2915 20.0701 39.2983 20.213C39.3051 20.349 39.3085 20.5294 39.3085 20.7539C39.3085 21.3255 39.271 21.846 39.1962 22.3155C39.1213 22.7782 38.9887 23.2273 38.7981 23.6628C38.6076 24.0915 38.3558 24.4521 38.0428 24.7447C37.7366 25.0305 37.3352 25.2584 36.8385 25.4286C36.3485 25.5987 35.777 25.6837 35.1237 25.6837ZM44.7588 25.6837C44.2145 25.6837 43.7211 25.6259 43.2789 25.5102C42.8366 25.4013 42.4623 25.2584 42.1561 25.0815C41.8567 24.8978 41.5948 24.6699 41.3702 24.3977C41.1525 24.1187 40.979 23.8363 40.8497 23.5505C40.7204 23.2647 40.6149 22.9381 40.5333 22.5707C40.4584 22.2033 40.4074 21.863 40.3802 21.55C40.3598 21.237 40.3495 20.89 40.3495 20.5089V14.3543C40.3495 12.9458 40.751 11.8707 41.5539 11.129C42.3637 10.3805 43.4932 10.0063 44.9425 10.0063C47.8821 10.0063 49.3518 11.4556 49.3518 14.3543V15.4669C49.3518 16.8482 49.3382 17.7974 49.311 18.3145H44.0035V20.4579C44.0035 20.526 44.0001 20.6382 43.9933 20.7947C43.9933 20.9444 43.9933 21.0601 43.9933 21.1418C43.9933 21.3867 44.0035 21.5977 44.0239 21.7746C44.0444 21.9447 44.0818 22.1216 44.1362 22.3053C44.1907 22.4822 44.2791 22.6183 44.4016 22.7136C44.5309 22.802 44.6908 22.8463 44.8813 22.8463C45.0786 22.8463 45.2385 22.7782 45.361 22.6421C45.4835 22.4992 45.5685 22.2985 45.6162 22.0399C45.6706 21.7746 45.7046 21.5398 45.7182 21.3357C45.7319 21.1316 45.7387 20.8764 45.7387 20.5702C45.7387 19.9714 45.7319 19.6448 45.7182 19.5903H49.3518V20.4579C49.3518 21.3085 49.2872 22.0331 49.1579 22.6319C49.0286 23.2307 48.7973 23.7717 48.4638 24.2548C48.1372 24.7311 47.6677 25.0883 47.0553 25.3265C46.4429 25.5646 45.6774 25.6837 44.7588 25.6837ZM44.9017 12.7519C44.7112 12.7519 44.5513 12.8029 44.422 12.905C44.2927 13.0003 44.1975 13.1465 44.1362 13.3439C44.075 13.5412 44.0341 13.7453 44.0137 13.9563C43.9933 14.1604 43.9831 14.4122 43.9831 14.7116C43.9831 14.8545 43.9865 15.0688 43.9933 15.3546C44.0001 15.6404 44.0035 15.8547 44.0035 15.9976H45.7182V14.4054C45.7182 13.303 45.4461 12.7519 44.9017 12.7519ZM50.7807 10.1798H54.3531V11.966C54.4415 11.6258 54.5606 11.3332 54.7103 11.0882C54.86 10.8364 55.0165 10.6425 55.1798 10.5064C55.3499 10.3703 55.5404 10.2615 55.7514 10.1798C55.9691 10.0982 56.1665 10.0471 56.3434 10.0267C56.5203 10.0063 56.7142 9.99609 56.9251 9.99609C57.2382 9.99609 57.5444 10.0403 57.8437 10.1288C58.1431 10.2172 58.4425 10.3873 58.7419 10.6391C59.0413 10.8841 59.2625 11.1937 59.4054 11.5679C59.7252 10.9895 60.0858 10.5847 60.4873 10.3533C60.8955 10.1152 61.4025 9.99609 62.0081 9.99609C62.464 9.99609 62.8688 10.0539 63.2227 10.1696C63.5833 10.2853 63.8759 10.4554 64.1004 10.6799C64.3318 10.8977 64.5223 11.1392 64.672 11.4046C64.8285 11.6632 64.9408 11.966 65.0088 12.313C65.0837 12.66 65.1347 12.9866 65.1619 13.2928C65.1891 13.599 65.2027 13.9393 65.2027 14.3135L65.1619 25.5H61.4773V14.2523C61.4773 13.2656 61.229 12.7723 60.7322 12.7723C60.5417 12.7723 60.375 12.8335 60.2321 12.956C60.096 13.0717 59.9939 13.2248 59.9259 13.4153C59.8579 13.6058 59.8102 13.793 59.783 13.9767C59.7558 14.1536 59.7422 14.3305 59.7422 14.5074V25.5H56.0882V14.6912C56.0882 14.6707 56.0882 14.6095 56.0882 14.5074C56.0882 14.3986 56.0882 14.3169 56.0882 14.2625C56.0882 14.2012 56.0848 14.1128 56.078 13.9971C56.078 13.8746 56.0712 13.7794 56.0576 13.7113C56.044 13.6365 56.027 13.548 56.0066 13.4459C55.9861 13.3371 55.9555 13.252 55.9147 13.1908C55.8807 13.1227 55.8398 13.0581 55.7922 12.9969C55.7446 12.9356 55.6833 12.8914 55.6085 12.8642C55.5404 12.8301 55.4622 12.8131 55.3737 12.8131C55.1764 12.8131 55.0063 12.8744 54.8634 12.9969C54.7273 13.1193 54.6218 13.2826 54.547 13.4868C54.479 13.6909 54.4279 13.8916 54.3939 14.089C54.3667 14.2863 54.3531 14.487 54.3531 14.6912V25.5H50.7807V10.1798ZM66.8664 25.5V10.1798H70.5204V25.5H66.8664ZM66.8664 9.2408V7.44443H70.5204V9.2408H66.8664ZM77.0833 14.7524L77.0629 14.1706C77.0629 14.0345 77.0527 13.8984 77.0323 13.7623C77.0118 13.6263 76.9744 13.4868 76.92 13.3439C76.8656 13.1942 76.7839 13.0751 76.675 12.9866C76.5662 12.8982 76.4369 12.854 76.2872 12.854C76.0354 12.854 75.8415 12.9254 75.7054 13.0683C75.5761 13.2112 75.5115 13.4119 75.5115 13.6705C75.5115 14.2148 75.7292 14.6469 76.1647 14.9667L78.4204 16.6202C78.8695 16.9536 79.2573 17.3041 79.5839 17.6715C79.9105 18.0389 80.1555 18.3758 80.3188 18.682C80.4889 18.9814 80.6216 19.3046 80.7169 19.6516C80.8189 19.9986 80.8802 20.281 80.9006 20.4987C80.921 20.7165 80.9312 20.9614 80.9312 21.2336C80.9312 22.6966 80.5161 23.8057 79.686 24.561C78.8627 25.3095 77.7433 25.6837 76.328 25.6837C73.3068 25.6837 71.7962 24.1459 71.7962 21.0703L71.8167 19.8557H75.4706L75.4911 21.6521C75.4911 21.8971 75.5183 22.1012 75.5727 22.2645C75.6339 22.421 75.7156 22.5333 75.8177 22.6013C75.9197 22.6694 76.0116 22.7136 76.0932 22.734C76.1817 22.7544 76.2804 22.7646 76.3892 22.7646C76.8792 22.7646 77.1241 22.3666 77.1241 21.5704C77.1241 21.3663 77.1207 21.22 77.1139 21.1316C77.1071 21.0363 77.0799 20.9002 77.0323 20.7233C76.9914 20.5396 76.92 20.3797 76.8179 20.2436C76.7227 20.1075 76.5798 19.9408 76.3892 19.7434C76.2055 19.5461 75.9708 19.3386 75.685 19.1208L73.7355 17.6205C73.3136 17.2939 72.97 16.9774 72.7046 16.6712C72.4461 16.3582 72.2555 16.0316 72.1331 15.6914C72.0174 15.3444 71.9425 15.0348 71.9085 14.7626C71.8745 14.4836 71.8575 14.1264 71.8575 13.6909C71.8575 12.9084 72.082 12.2314 72.5311 11.6598C72.9802 11.0882 73.5382 10.6697 74.205 10.4044C74.8787 10.139 75.6067 10.0063 76.3892 10.0063C77.825 10.0063 78.9239 10.3703 79.686 11.0984C80.4549 11.8265 80.8393 12.9492 80.8393 14.4666V14.7524H77.0833ZM95.7819 18.4982V21.5704C95.7819 22.9858 95.3804 24.0268 94.5775 24.6937C93.7746 25.3537 92.6518 25.6837 91.2093 25.6837C89.9301 25.6837 88.889 25.3197 88.0861 24.5916C87.2831 23.8567 86.8817 22.8157 86.8817 21.4684V13.9257C86.8817 12.313 87.2355 11.1086 87.9432 10.3125C88.6576 9.50958 89.7736 9.10812 91.291 9.10812C91.9102 9.10812 92.4817 9.18637 93.0057 9.34287C93.5296 9.49257 93.9923 9.71711 94.3938 10.0165C94.802 10.3159 95.1218 10.7106 95.3532 11.2005C95.5846 11.6836 95.7002 12.2416 95.7002 12.8744V15.7424H92.1483V13.8542C92.1483 12.8812 91.8625 12.3947 91.291 12.3947C90.9507 12.3947 90.7262 12.5035 90.6173 12.7213C90.5084 12.9322 90.454 13.2282 90.454 13.6092V21.2949C90.454 21.6283 90.5289 21.9175 90.6786 22.1624C90.8351 22.4074 91.0392 22.5299 91.291 22.5299C91.5223 22.5299 91.723 22.4414 91.8931 22.2645C92.0633 22.0808 92.1483 21.7576 92.1483 21.2949V18.4982H95.7819ZM101.559 25.6837C98.5105 25.6837 96.9863 24.0949 96.9863 20.9172V14.7728C96.9863 13.3099 97.3945 12.1497 98.2111 11.2923C99.0276 10.435 100.144 10.0063 101.559 10.0063C102.981 10.0063 104.1 10.435 104.917 11.2923C105.733 12.1497 106.142 13.3099 106.142 14.7728V20.9172C106.142 22.5163 105.75 23.7104 104.968 24.4997C104.192 25.2891 103.056 25.6837 101.559 25.6837ZM100.701 14.191V21.6725C100.701 22.0808 100.78 22.3802 100.936 22.5707C101.1 22.7544 101.307 22.8463 101.559 22.8463C101.811 22.8463 102.015 22.7544 102.171 22.5707C102.335 22.3802 102.416 22.0808 102.416 21.6725V14.191C102.416 13.2996 102.13 12.854 101.559 12.854C100.987 12.854 100.701 13.2996 100.701 14.191ZM107.611 25.5V10.1798H111.265V11.9354C111.415 11.2753 111.691 10.7888 112.092 10.4758C112.5 10.1628 112.994 10.0063 113.572 10.0063C114.531 10.0063 115.277 10.3091 115.807 10.9147C116.338 11.5135 116.603 12.4389 116.603 13.6909V25.5H113V14.0685C113 13.7487 112.936 13.4664 112.807 13.2214C112.677 12.9764 112.47 12.854 112.184 12.854C112.007 12.854 111.857 12.905 111.735 13.0071C111.612 13.1023 111.521 13.2146 111.459 13.3439C111.405 13.4664 111.361 13.6297 111.327 13.8338C111.293 14.0379 111.272 14.1944 111.265 14.3033C111.265 14.4122 111.265 14.5551 111.265 14.732V25.5H107.611ZM123.136 14.7524L123.115 14.1706C123.115 14.0345 123.105 13.8984 123.085 13.7623C123.064 13.6263 123.027 13.4868 122.972 13.3439C122.918 13.1942 122.836 13.0751 122.727 12.9866C122.619 12.8982 122.489 12.854 122.34 12.854C122.088 12.854 121.894 12.9254 121.758 13.0683C121.629 13.2112 121.564 13.4119 121.564 13.6705C121.564 14.2148 121.782 14.6469 122.217 14.9667L124.473 16.6202C124.922 16.9536 125.31 17.3041 125.636 17.6715C125.963 18.0389 126.208 18.3758 126.371 18.682C126.541 18.9814 126.674 19.3046 126.769 19.6516C126.871 19.9986 126.933 20.281 126.953 20.4987C126.973 20.7165 126.984 20.9614 126.984 21.2336C126.984 22.6966 126.569 23.8057 125.738 24.561C124.915 25.3095 123.796 25.6837 122.38 25.6837C119.359 25.6837 117.849 24.1459 117.849 21.0703L117.869 19.8557H121.523L121.543 21.6521C121.543 21.8971 121.571 22.1012 121.625 22.2645C121.686 22.421 121.768 22.5333 121.87 22.6013C121.972 22.6694 122.064 22.7136 122.146 22.734C122.234 22.7544 122.333 22.7646 122.442 22.7646C122.932 22.7646 123.177 22.3666 123.177 21.5704C123.177 21.3663 123.173 21.22 123.166 21.1316C123.16 21.0363 123.132 20.9002 123.085 20.7233C123.044 20.5396 122.972 20.3797 122.87 20.2436C122.775 20.1075 122.632 19.9408 122.442 19.7434C122.258 19.5461 122.023 19.3386 121.737 19.1208L119.788 17.6205C119.366 17.2939 119.022 16.9774 118.757 16.6712C118.498 16.3582 118.308 16.0316 118.185 15.6914C118.07 15.3444 117.995 15.0348 117.961 14.7626C117.927 14.4836 117.91 14.1264 117.91 13.6909C117.91 12.9084 118.134 12.2314 118.584 11.6598C119.033 11.0882 119.591 10.6697 120.257 10.4044C120.931 10.139 121.659 10.0063 122.442 10.0063C123.877 10.0063 124.976 10.3703 125.738 11.0984C126.507 11.8265 126.892 12.9492 126.892 14.4666V14.7524H123.136ZM133.557 10.19H137.19V25.5H133.536V23.8669C133.25 24.5882 132.92 25.0713 132.546 25.3163C132.179 25.5612 131.723 25.6837 131.179 25.6837C130.661 25.6837 130.216 25.6089 129.841 25.4592C129.467 25.3027 129.175 25.1087 128.964 24.8774C128.753 24.6392 128.586 24.333 128.464 23.9588C128.348 23.5777 128.273 23.2103 128.239 22.8565C128.205 22.5026 128.188 22.0808 128.188 21.5909V10.19H131.862V20.856C131.862 21.6317 131.907 22.1522 131.995 22.4176C132.09 22.6762 132.318 22.8054 132.679 22.8054C132.815 22.8054 132.934 22.7816 133.036 22.734C133.145 22.6796 133.227 22.5979 133.281 22.489C133.342 22.3802 133.39 22.2747 133.424 22.1726C133.465 22.0706 133.492 21.9379 133.506 21.7746C133.519 21.6045 133.526 21.4718 133.526 21.3765C133.533 21.2813 133.536 21.1486 133.536 20.9785C133.536 20.924 133.536 20.8832 133.536 20.856L133.557 10.19ZM142.62 25.5H138.905V7.46484H142.62V25.5ZM144.508 7.52608H148.06V10.782H148.714V13.5684H148.06V22.1828C148.06 22.3121 148.064 22.4142 148.071 22.489C148.077 22.5639 148.091 22.6455 148.111 22.734C148.132 22.8157 148.169 22.8769 148.224 22.9177C148.285 22.9517 148.36 22.9688 148.448 22.9688C148.537 22.9688 148.625 22.9551 148.714 22.9279V25.4183C148.196 25.5953 147.547 25.6837 146.764 25.6837C146.369 25.6837 146.029 25.6293 145.743 25.5204C145.464 25.4183 145.247 25.2925 145.09 25.1428C144.934 24.9863 144.808 24.7889 144.713 24.5508C144.624 24.3058 144.566 24.0779 144.539 23.8669C144.519 23.656 144.508 23.4144 144.508 23.1423V13.5684H143.947V10.782H144.508V7.52608ZM155.001 14.7524L154.98 14.1706C154.98 14.0345 154.97 13.8984 154.95 13.7623C154.929 13.6263 154.892 13.4868 154.838 13.3439C154.783 13.1942 154.701 13.0751 154.593 12.9866C154.484 12.8982 154.354 12.854 154.205 12.854C153.953 12.854 153.759 12.9254 153.623 13.0683C153.494 13.2112 153.429 13.4119 153.429 13.6705C153.429 14.2148 153.647 14.6469 154.082 14.9667L156.338 16.6202C156.787 16.9536 157.175 17.3041 157.502 17.6715C157.828 18.0389 158.073 18.3758 158.236 18.682C158.406 18.9814 158.539 19.3046 158.634 19.6516C158.737 19.9986 158.798 20.281 158.818 20.4987C158.839 20.7165 158.849 20.9614 158.849 21.2336C158.849 22.6966 158.434 23.8057 157.604 24.561C156.78 25.3095 155.661 25.6837 154.246 25.6837C151.224 25.6837 149.714 24.1459 149.714 21.0703L149.734 19.8557H153.388L153.409 21.6521C153.409 21.8971 153.436 22.1012 153.49 22.2645C153.552 22.421 153.633 22.5333 153.735 22.6013C153.837 22.6694 153.929 22.7136 154.011 22.734C154.099 22.7544 154.198 22.7646 154.307 22.7646C154.797 22.7646 155.042 22.3666 155.042 21.5704C155.042 21.3663 155.038 21.22 155.031 21.1316C155.025 21.0363 154.997 20.9002 154.95 20.7233C154.909 20.5396 154.838 20.3797 154.736 20.2436C154.64 20.1075 154.497 19.9408 154.307 19.7434C154.123 19.5461 153.888 19.3386 153.603 19.1208L151.653 17.6205C151.231 17.2939 150.888 16.9774 150.622 16.6712C150.364 16.3582 150.173 16.0316 150.051 15.6914C149.935 15.3444 149.86 15.0348 149.826 14.7626C149.792 14.4836 149.775 14.1264 149.775 13.6909C149.775 12.9084 150 12.2314 150.449 11.6598C150.898 11.0882 151.456 10.6697 152.123 10.4044C152.796 10.139 153.524 10.0063 154.307 10.0063C155.743 10.0063 156.841 10.3703 157.604 11.0984C158.372 11.8265 158.757 12.9492 158.757 14.4666V14.7524H155.001ZM164.442 21.5602C164.442 21.2472 164.445 20.9955 164.452 20.8049C164.459 20.6144 164.476 20.3627 164.503 20.0496C164.537 19.7366 164.585 19.4679 164.646 19.2433C164.707 19.0188 164.796 18.7568 164.912 18.4574C165.034 18.158 165.177 17.8858 165.34 17.6409C165.51 17.3959 165.725 17.1408 165.983 16.8754C166.242 16.6032 166.538 16.3446 166.871 16.0997C166.579 15.5213 166.334 14.9191 166.136 14.2931C165.946 13.6603 165.851 13.1023 165.851 12.6192C165.851 11.5713 166.191 10.765 166.871 10.2002C167.552 9.63546 168.395 9.35308 169.402 9.35308C169.845 9.35308 170.27 9.41772 170.678 9.547C171.087 9.66948 171.461 9.8566 171.801 10.1084C172.141 10.3533 172.413 10.6833 172.618 11.0984C172.822 11.5135 172.924 11.983 172.924 12.5069C172.924 13.9359 172.124 15.2899 170.525 16.5692L171.168 18.09C171.57 17.0557 172.155 16.2562 172.924 15.6914L174.342 17.9063C173.546 18.5391 172.876 19.6006 172.332 21.0907L174.159 25.5H170.689L170.311 24.51C170.005 24.891 169.62 25.187 169.158 25.3979C168.695 25.6089 168.215 25.7143 167.718 25.7143C167.296 25.7143 166.895 25.6361 166.514 25.4796C166.133 25.3163 165.786 25.0747 165.473 24.7549C165.16 24.4351 164.908 24.003 164.718 23.4587C164.534 22.9075 164.442 22.2747 164.442 21.5602ZM167.565 21.1826C167.565 21.203 167.565 21.237 167.565 21.2847C167.565 21.5092 167.569 21.6929 167.575 21.8358C167.582 21.9719 167.606 22.1556 167.647 22.387C167.688 22.6183 167.763 22.7952 167.871 22.9177C167.98 23.0402 168.12 23.1014 168.29 23.1014C168.433 23.1014 168.566 23.0674 168.688 22.9994C168.817 22.9245 168.916 22.8429 168.984 22.7544C169.052 22.666 169.117 22.5639 169.178 22.4482C169.239 22.3257 169.277 22.2441 169.29 22.2033C169.304 22.1556 169.314 22.1182 169.321 22.091L168.076 19.1208L167.953 19.3148C167.865 19.4372 167.776 19.672 167.688 20.019C167.606 20.3592 167.565 20.7471 167.565 21.1826ZM169.158 12.5069C169.158 12.8744 169.304 13.4289 169.596 14.1706L169.77 13.9869C169.892 13.8576 170.011 13.6535 170.127 13.3745C170.25 13.0955 170.311 12.8063 170.311 12.5069C170.311 12.0783 170.11 11.8639 169.709 11.8639C169.539 11.8639 169.402 11.9286 169.3 12.0578C169.205 12.1803 169.158 12.33 169.158 12.5069ZM188.907 18.4982V21.5704C188.907 22.9858 188.506 24.0268 187.703 24.6937C186.9 25.3537 185.777 25.6837 184.335 25.6837C183.056 25.6837 182.014 25.3197 181.212 24.5916C180.409 23.8567 180.007 22.8157 180.007 21.4684V13.9257C180.007 12.313 180.361 11.1086 181.069 10.3125C181.783 9.50958 182.899 9.10812 184.416 9.10812C185.036 9.10812 185.607 9.18637 186.131 9.34287C186.655 9.49257 187.118 9.71711 187.519 10.0165C187.928 10.3159 188.247 10.7106 188.479 11.2005C188.71 11.6836 188.826 12.2416 188.826 12.8744V15.7424H185.274V13.8542C185.274 12.8812 184.988 12.3947 184.416 12.3947C184.076 12.3947 183.852 12.5035 183.743 12.7213C183.634 12.9322 183.58 13.2282 183.58 13.6092V21.2949C183.58 21.6283 183.654 21.9175 183.804 22.1624C183.961 22.4074 184.165 22.5299 184.416 22.5299C184.648 22.5299 184.849 22.4414 185.019 22.2645C185.189 22.0808 185.274 21.7576 185.274 21.2949V18.4982H188.907ZM194.684 25.6837C191.636 25.6837 190.112 24.0949 190.112 20.9172V14.7728C190.112 13.3099 190.52 12.1497 191.337 11.2923C192.153 10.435 193.269 10.0063 194.684 10.0063C196.106 10.0063 197.226 10.435 198.042 11.2923C198.859 12.1497 199.267 13.3099 199.267 14.7728V20.9172C199.267 22.5163 198.876 23.7104 198.093 24.4997C197.318 25.2891 196.181 25.6837 194.684 25.6837ZM193.827 14.191V21.6725C193.827 22.0808 193.905 22.3802 194.062 22.5707C194.225 22.7544 194.433 22.8463 194.684 22.8463C194.936 22.8463 195.14 22.7544 195.297 22.5707C195.46 22.3802 195.542 22.0808 195.542 21.6725V14.191C195.542 13.2996 195.256 12.854 194.684 12.854C194.113 12.854 193.827 13.2996 193.827 14.191Z" fill="#0C0C0C"/>
</svg>
