<svg width="20" height="20" viewBox="0 0 20 20" fill="none" xmlns="http://www.w3.org/2000/svg">
<path d="M0.999978 20H19C19.1705 20.0001 19.3381 19.9566 19.4871 19.8736C19.636 19.7907 19.7612 19.671 19.8509 19.526C19.9406 19.3811 19.9917 19.2156 19.9994 19.0453C20.0071 18.875 19.9712 18.7055 19.895 18.553L10.895 0.553007C10.8026 0.398031 10.6715 0.269703 10.5146 0.180586C10.3577 0.0914686 10.1804 0.0446167 9.99998 0.0446167C9.81955 0.0446167 9.64221 0.0914686 9.48532 0.180586C9.32843 0.269703 9.19738 0.398031 9.10498 0.553007L0.104978 18.553C0.0287753 18.7055 -0.00717704 18.875 0.000535877 19.0453C0.00824879 19.2156 0.0593708 19.3811 0.149046 19.526C0.238722 19.671 0.363973 19.7907 0.512905 19.8736C0.661836 19.9566 0.829502 20.0001 0.999978 20ZM9.99998 3.23601L17.382 18H2.61798L9.99998 3.23601Z" fill="#1324BB"/>
</svg>
