<svg width="24" height="24" viewBox="0 0 24 24" fill="none" xmlns="http://www.w3.org/2000/svg">
<path d="M1.00049 12C1.00393 9.08367 2.16396 6.28778 4.22611 4.22563C6.28827 2.16347 9.08416 1.00344 12.0005 1C12.2657 1 12.5201 1.10536 12.7076 1.29289C12.8951 1.48043 13.0005 1.73478 13.0005 2C13.0005 2.26522 12.8951 2.51957 12.7076 2.70711C12.5201 2.89464 12.2657 3 12.0005 3C10.6633 3.00115 9.34307 3.30027 8.13594 3.87562C6.9288 4.45097 5.86505 5.28809 5.02201 6.32611C4.17897 7.36413 3.57784 8.57697 3.26232 9.87646C2.9468 11.1759 2.92483 12.5294 3.19798 13.8384C3.47114 15.1475 4.03258 16.3792 4.84146 17.444C5.65035 18.5089 6.68637 19.3801 7.87418 19.9944C9.062 20.6086 10.3718 20.9504 11.7083 20.995C13.0448 21.0396 14.3744 20.7857 15.6005 20.252C15.7215 20.1947 15.8528 20.1622 15.9866 20.1566C16.1204 20.151 16.2539 20.1723 16.3793 20.2192C16.5047 20.2662 16.6194 20.3378 16.7166 20.43C16.8138 20.5221 16.8915 20.6328 16.9451 20.7555C16.9987 20.8782 17.0271 21.0105 17.0286 21.1444C17.0301 21.2783 17.0047 21.4111 16.9539 21.535C16.9031 21.6589 16.828 21.7713 16.7329 21.8657C16.6378 21.96 16.5248 22.0342 16.4005 22.084C14.7263 22.8147 12.8965 23.1169 11.0763 22.9634C9.25611 22.81 7.50276 22.2056 5.97456 21.205C4.44637 20.2043 3.19142 18.8388 2.32302 17.2317C1.45462 15.6247 1.0001 13.8267 1.00049 12ZM16.4005 1.916C16.2795 1.85867 16.1482 1.82622 16.0144 1.82059C15.8806 1.81496 15.747 1.83625 15.6216 1.88321C15.4962 1.93017 15.3815 2.00184 15.2844 2.09397C15.1872 2.18609 15.1095 2.2968 15.0559 2.41952C15.0023 2.54223 14.9739 2.67446 14.9724 2.80836C14.9709 2.94226 14.9963 3.0751 15.0471 3.199C15.0978 3.32291 15.173 3.43534 15.2681 3.52965C15.3631 3.62396 15.4762 3.69821 15.6005 3.748C16.9375 4.3311 18.1127 5.23042 19.025 6.36851C19.9373 7.50661 20.5593 8.84939 20.8374 10.2812C21.1156 11.7131 21.0416 13.1911 20.6218 14.5879C20.2019 15.9848 19.4489 17.2587 18.4275 18.3C18.3334 18.3933 18.2587 18.5044 18.2079 18.6268C18.1571 18.7492 18.1311 18.8804 18.1315 19.013C18.1319 19.1455 18.1586 19.2766 18.2101 19.3987C18.2615 19.5208 18.3368 19.6315 18.4314 19.7243C18.526 19.817 18.6382 19.8901 18.7613 19.9391C18.8844 19.9882 19.016 20.0123 19.1485 20.0101C19.281 20.0078 19.4118 19.9792 19.5331 19.926C19.6545 19.8728 19.7641 19.7959 19.8555 19.7C21.1035 18.4273 22.0236 16.8705 22.5365 15.1634C23.0494 13.4563 23.1397 11.6501 22.7998 9.90038C22.4599 8.15062 21.6998 6.50968 20.5851 5.11881C19.4703 3.72793 18.0342 2.62879 16.4005 1.916Z" fill="#1324BB"/>
</svg>
