<svg width="19" height="18" viewBox="0 0 19 18" fill="none" xmlns="http://www.w3.org/2000/svg">
<path d="M1.4165 5.25V2.25C1.4165 2.05109 1.49552 1.86032 1.63617 1.71967C1.77683 1.57902 1.96759 1.5 2.1665 1.5H5.1665C5.36542 1.5 5.55618 1.57902 5.69683 1.71967C5.83749 1.86032 5.9165 2.05109 5.9165 2.25C5.9165 2.44891 5.83749 2.63968 5.69683 2.78033C5.55618 2.92098 5.36542 3 5.1665 3H2.9165V5.25C2.9165 5.44891 2.83749 5.63968 2.69683 5.78033C2.55618 5.92098 2.36542 6 2.1665 6C1.96759 6 1.77683 5.92098 1.63617 5.78033C1.49552 5.63968 1.4165 5.44891 1.4165 5.25ZM2.1665 16.5H5.1665C5.36542 16.5 5.55618 16.421 5.69683 16.2803C5.83749 16.1397 5.9165 15.9489 5.9165 15.75C5.9165 15.5511 5.83749 15.3603 5.69683 15.2197C5.55618 15.079 5.36542 15 5.1665 15H2.9165V12.75C2.9165 12.5511 2.83749 12.3603 2.69683 12.2197C2.55618 12.079 2.36542 12 2.1665 12C1.96759 12 1.77683 12.079 1.63617 12.2197C1.49552 12.3603 1.4165 12.5511 1.4165 12.75V15.75C1.4165 15.9489 1.49552 16.1397 1.63617 16.2803C1.77683 16.421 1.96759 16.5 2.1665 16.5ZM17.9165 12.75C17.9165 12.5511 17.8375 12.3603 17.6968 12.2197C17.5562 12.079 17.3654 12 17.1665 12C16.9676 12 16.7768 12.079 16.6362 12.2197C16.4955 12.3603 16.4165 12.5511 16.4165 12.75V15H14.1665C13.9676 15 13.7768 15.079 13.6362 15.2197C13.4955 15.3603 13.4165 15.5511 13.4165 15.75C13.4165 15.9489 13.4955 16.1397 13.6362 16.2803C13.7768 16.421 13.9676 16.5 14.1665 16.5H17.1665C17.3654 16.5 17.5562 16.421 17.6968 16.2803C17.8375 16.1397 17.9165 15.9489 17.9165 15.75V12.75ZM13.4165 2.25C13.4165 2.44891 13.4955 2.63968 13.6362 2.78033C13.7768 2.92098 13.9676 3 14.1665 3H16.4165V5.25C16.4165 5.44891 16.4955 5.63968 16.6362 5.78033C16.7768 5.92098 16.9676 6 17.1665 6C17.3654 6 17.5562 5.92098 17.6968 5.78033C17.8375 5.63968 17.9165 5.44891 17.9165 5.25V2.25C17.9165 2.05109 17.8375 1.86032 17.6968 1.71967C17.5562 1.57902 17.3654 1.5 17.1665 1.5H14.1665C13.9676 1.5 13.7768 1.57902 13.6362 1.71967C13.4955 1.86032 13.4165 2.05109 13.4165 2.25ZM8.1665 16.5H11.1665C11.3654 16.5 11.5562 16.421 11.6968 16.2803C11.8375 16.1397 11.9165 15.9489 11.9165 15.75C11.9165 15.5511 11.8375 15.3603 11.6968 15.2197C11.5562 15.079 11.3654 15 11.1665 15H8.1665C7.96759 15 7.77683 15.079 7.63617 15.2197C7.49552 15.3603 7.4165 15.5511 7.4165 15.75C7.4165 15.9489 7.49552 16.1397 7.63617 16.2803C7.77683 16.421 7.96759 16.5 8.1665 16.5ZM17.9165 7.875C17.9165 7.67609 17.8375 7.48532 17.6968 7.34467C17.5562 7.20402 17.3654 7.125 17.1665 7.125C16.9676 7.125 16.7768 7.20402 16.6362 7.34467C16.4955 7.48532 16.4165 7.67609 16.4165 7.875V10.125C16.4165 10.3239 16.4955 10.5147 16.6362 10.6553C16.7768 10.796 16.9676 10.875 17.1665 10.875C17.3654 10.875 17.5562 10.796 17.6968 10.6553C17.8375 10.5147 17.9165 10.3239 17.9165 10.125V7.875ZM2.1665 10.875C2.36542 10.875 2.55618 10.796 2.69683 10.6553C2.83749 10.5147 2.9165 10.3239 2.9165 10.125V7.875C2.9165 7.67609 2.83749 7.48532 2.69683 7.34467C2.55618 7.20402 2.36542 7.125 2.1665 7.125C1.96759 7.125 1.77683 7.20402 1.63617 7.34467C1.49552 7.48532 1.4165 7.67609 1.4165 7.875V10.125C1.4165 10.3239 1.49552 10.5147 1.63617 10.6553C1.77683 10.796 1.96759 10.875 2.1665 10.875ZM8.1665 3H11.1665C11.3654 3 11.5562 2.92098 11.6968 2.78033C11.8375 2.63968 11.9165 2.44891 11.9165 2.25C11.9165 2.05109 11.8375 1.86032 11.6968 1.71967C11.5562 1.57902 11.3654 1.5 11.1665 1.5H8.1665C7.96759 1.5 7.77683 1.57902 7.63617 1.71967C7.49552 1.86032 7.4165 2.05109 7.4165 2.25C7.4165 2.44891 7.49552 2.63968 7.63617 2.78033C7.77683 2.92098 7.96759 3 8.1665 3Z" fill="#1324BB"/>
</svg>
